<?xml version="1.0" encoding="UTF-8"?>
<svg xmlns="http://www.w3.org/2000/svg"
     width="960"
     height="704"
     viewBox="0 0 960 704"
     role="img"
     aria-labelledby="profile-title profile-desc"
     focusable="false">
  <title id="profile-title">stophemo 的个人主页</title>
  <desc id="profile-desc">自动运行的三轨躲避游戏，文字“好好吃饭，好好睡觉，好好生活”，以及过去 365 天的真实 GitHub 贡献轨迹。</desc>

  <style>
.sans {
      font-family: Inter, ui-sans-serif, -apple-system, BlinkMacSystemFont, "Segoe UI", Arial, sans-serif;
      letter-spacing: 0;
    }

    .mono {
      font-family: "SFMono-Regular", Consolas, "Liberation Mono", Menlo, monospace;
      letter-spacing: 0;
    }

    .grid-flow { animation: grid-flow .72s linear infinite; }
    .lane-flow { animation: lane-flow .54s linear infinite; }
    .runner { animation: runner-shift 7.2s cubic-bezier(.65, 0, .35, 1) infinite; }
    .trail { animation: trail-pulse .42s ease-in-out infinite alternate; }
    .fall-one { animation: fall-one 7.2s linear infinite; }
    .fall-two { animation: fall-two 7.2s linear infinite; }
    .fall-three { animation: fall-three 7.2s linear infinite; }
    .pickup-one { animation: pickup-one 7.2s linear infinite; }
    .pickup-two { animation: pickup-two 7.2s linear infinite; }
    .pickup-three { animation: pickup-three 7.2s linear infinite; }
    .burst-one,
    .burst-two,
    .burst-three {
      transform-box: fill-box;
      transform-origin: center;
    }
    .burst-one { animation: burst-one 7.2s ease-out infinite; }
    .burst-two { animation: burst-two 7.2s ease-out infinite; }
    .burst-three { animation: burst-three 7.2s ease-out infinite; }
    .score-zero { animation: score-zero 7.2s steps(1, end) infinite; }
    .score-one { animation: score-one 7.2s steps(1, end) infinite; }
    .score-two { animation: score-two 7.2s steps(1, end) infinite; }
    .score-three { animation: score-three 7.2s steps(1, end) infinite; }
    .status-flash { animation: status-flash 2.4s steps(1, end) infinite; }
    .scan { animation: scan 3.6s linear infinite; }

    @keyframes grid-flow {
      to { transform: translateY(32px); }
    }

    @keyframes lane-flow {
      to { stroke-dashoffset: -38; }
    }

    @keyframes runner-shift {
      0%, 14% { transform: translateX(0); }
      20%, 38% { transform: translateX(-245px); }
      44%, 68% { transform: translateX(245px); }
      74%, 100% { transform: translateX(0); }
    }

    @keyframes trail-pulse {
      from { opacity: .35; transform: scaleY(.72); }
      to { opacity: .95; transform: scaleY(1); }
    }

    @keyframes fall-one {
      0% { transform: translateY(-170px); opacity: 0; }
      3% { opacity: 1; }
      37% { transform: translateY(365px); opacity: 1; }
      39%, 100% { transform: translateY(365px); opacity: 0; }
    }

    @keyframes fall-two {
      0%, 31% { transform: translateY(-170px); opacity: 0; }
      34% { opacity: 1; }
      69% { transform: translateY(365px); opacity: 1; }
      71%, 100% { transform: translateY(365px); opacity: 0; }
    }

    @keyframes fall-three {
      0%, 62% { transform: translateY(-170px); opacity: 0; }
      65% { opacity: 1; }
      98% { transform: translateY(365px); opacity: 1; }
      100% { transform: translateY(365px); opacity: 0; }
    }

    @keyframes pickup-one {
      0% { transform: translateY(-170px); opacity: 0; }
      3% { opacity: 1; }
      30% { transform: translateY(228px); opacity: 1; }
      31%, 100% { transform: translateY(228px); opacity: 0; }
    }

    @keyframes pickup-two {
      0%, 31% { transform: translateY(-170px); opacity: 0; }
      34% { opacity: 1; }
      61% { transform: translateY(228px); opacity: 1; }
      62%, 100% { transform: translateY(228px); opacity: 0; }
    }

    @keyframes pickup-three {
      0%, 62% { transform: translateY(-170px); opacity: 0; }
      65% { opacity: 1; }
      92% { transform: translateY(228px); opacity: 1; }
      93%, 100% { transform: translateY(228px); opacity: 0; }
    }

    @keyframes burst-one {
      0%, 27% { transform: scale(.4); opacity: 0; }
      30% { opacity: 1; }
      35%, 100% { transform: scale(1.7); opacity: 0; }
    }

    @keyframes burst-two {
      0%, 58% { transform: scale(.4); opacity: 0; }
      61% { opacity: 1; }
      66%, 100% { transform: scale(1.7); opacity: 0; }
    }

    @keyframes burst-three {
      0%, 89% { transform: scale(.4); opacity: 0; }
      92% { opacity: 1; }
      97%, 100% { transform: scale(1.7); opacity: 0; }
    }

    @keyframes score-zero { 0%, 30% { opacity: 1; } 31%, 100% { opacity: 0; } }
    @keyframes score-one { 0%, 30% { opacity: 0; } 31%, 61% { opacity: 1; } 62%, 100% { opacity: 0; } }
    @keyframes score-two { 0%, 61% { opacity: 0; } 62%, 92% { opacity: 1; } 93%, 100% { opacity: 0; } }
    @keyframes score-three { 0%, 92% { opacity: 0; } 93%, 100% { opacity: 1; } }

    @keyframes status-flash {
      0%, 76% { opacity: 1; }
      77%, 82% { opacity: .2; }
      83%, 100% { opacity: 1; }
    }

    @keyframes scan {
      from { transform: translateY(-52px); opacity: 0; }
      10%, 90% { opacity: .22; }
      to { transform: translateY(450px); opacity: 0; }
    }

    @media (prefers-reduced-motion: reduce) {
      .grid-flow,
      .lane-flow,
      .runner,
      .trail,
      .fall-one,
      .fall-two,
      .fall-three,
      .pickup-one,
      .pickup-two,
      .pickup-three,
      .burst-one,
      .burst-two,
      .burst-three,
      .score-zero,
      .score-one,
      .score-two,
      .score-three,
      .status-flash,
      .scan {
        animation: none !important;
      }

      .burst-one,
      .burst-two,
      .burst-three,
      .score-one,
      .score-two,
      .score-three,
      .scan { opacity: 0; }

      .fall-one { transform: translateY(95px); opacity: 1; }
      .pickup-one { transform: translateY(130px); opacity: 1; }
      .fall-two,
      .fall-three,
      .pickup-two,
      .pickup-three { opacity: 0; }

      .score-zero { opacity: 1; }
    }

.mono {
      font-family: "SFMono-Regular", Consolas, "Liberation Mono", Menlo, monospace;
      letter-spacing: 0;
    }

    .cell { shape-rendering: crispEdges; }
    .month { fill: #747A81; font-size: 10px; font-weight: 700; }
    .trace-scan { animation: trace-scan 8s cubic-bezier(.45, 0, .55, 1) infinite; }
    .peak { animation: peak 3.2s ease-in-out infinite; }
    .phase-1 { animation-delay: -.8s; }
    .phase-2 { animation-delay: -1.6s; }
    .phase-3 { animation-delay: -2.4s; }
    .current { animation: current 1.8s steps(2, end) infinite; }
    .live { animation: live 2.4s steps(2, end) infinite; }

    @keyframes trace-scan {
      from { transform: translateX(0); }
      to { transform: translateX(766px); }
    }

    @keyframes peak {
      0%, 100% { opacity: 1; }
      50% { opacity: .52; }
    }

    @keyframes current {
      0%, 62% { opacity: 1; }
      63%, 100% { opacity: .25; }
    }

    @keyframes live {
      0%, 74% { opacity: 1; }
      75%, 100% { opacity: .28; }
    }

    @media (prefers-reduced-motion: reduce) {
      .trace-scan,
      .peak,
      .current,
      .live { animation: none !important; }

      .trace-scan { display: none; }
      .peak,
      .current,
      .live { opacity: 1; }
    }

    .bridge-sans {
      font-family: -apple-system, BlinkMacSystemFont, "PingFang SC", "Microsoft YaHei", Arial, sans-serif;
      letter-spacing: 0;
    }
  </style>

  <g>
<defs>
    <clipPath id="playfield-clip">
      <rect x="192" width="768" height="420"/>
    </clipPath>
    <pattern id="hazard-stripe" width="14" height="14" patternUnits="userSpaceOnUse" patternTransform="rotate(45)">
      <rect width="7" height="14" fill="#FF4F5E"/>
      <rect x="7" width="7" height="14" fill="#151618"/>
    </pattern>
  </defs>

  <rect width="960" height="420" fill="#090A0B"/>
  <rect width="8" height="420" fill="#D7FF3F"/>
  <rect x="8" width="184" height="420" fill="#121315"/>
  <path d="M192 0V420" stroke="#34373B"/>

  <g class="mono">
    <text x="28" y="38" fill="#F4F2EA" font-size="18" font-weight="800">STOPHEMO</text>
    <text x="28" y="61" fill="#8D9299" font-size="10" font-weight="700">PLAYER / 01</text>

    <text x="28" y="120" fill="#F4F2EA" font-size="43" font-weight="800">SIDE</text>
    <text x="28" y="160" fill="#F4F2EA" font-size="43" font-weight="800">QUEST</text>
    <rect x="28" y="174" width="104" height="5" fill="#D7FF3F"/>
    <rect x="138" y="174" width="24" height="5" fill="#27D7F2"/>

    <text x="28" y="218" fill="#747A81" font-size="10" font-weight="700">SCORE</text>
    <g fill="#F4F2EA" font-size="30" font-weight="800">
      <text class="score-zero" x="28" y="251">00420</text>
      <text class="score-one" x="28" y="251" opacity="0">00520</text>
      <text class="score-two" x="28" y="251" opacity="0">00620</text>
      <text class="score-three" x="28" y="251" opacity="0">00720</text>
    </g>

    <text x="28" y="291" fill="#747A81" font-size="10" font-weight="700">CHAIN</text>
    <text x="28" y="318" fill="#27D7F2" font-size="22" font-weight="800">x03</text>

    <g class="status-flash">
      <rect x="28" y="350" width="7" height="7" fill="#D7FF3F"/>
      <text x="44" y="357" fill="#D7FF3F" font-size="10" font-weight="700">RUNNING</text>
    </g>

    <path d="M28 382H162" stroke="#34373B"/>
    <text x="28" y="404" fill="#747A81" font-size="9" font-weight="700">RUN / 07</text>
    <g fill="#FF4F5E">
      <rect x="118" y="397" width="12" height="4"/>
      <rect x="134" y="397" width="12" height="4"/>
      <rect x="150" y="397" width="12" height="4"/>
    </g>
  </g>

  <g clip-path="url(#playfield-clip)">
    <rect x="192" width="768" height="420" fill="#0D0E10"/>
    <rect x="192" width="768" height="54" fill="#151618"/>
    <path d="M192 54H960" stroke="#34373B"/>

    <g class="grid-flow" fill="none" stroke="#25282C" stroke-width="1" aria-hidden="true">
      <path d="M192 -32H960 M192 0H960 M192 32H960 M192 64H960 M192 96H960 M192 128H960 M192 160H960 M192 192H960 M192 224H960 M192 256H960 M192 288H960 M192 320H960 M192 352H960 M192 384H960 M192 416H960"/>
    </g>

    <rect x="207" y="70" width="230" height="350" fill="#101113"/>
    <rect x="452" y="70" width="230" height="350" fill="#0B0C0E"/>
    <rect x="697" y="70" width="248" height="350" fill="#101113"/>

    <g fill="none" stroke="#4A4E54" stroke-width="2" aria-hidden="true">
      <path class="lane-flow" d="M452 62V430" stroke-dasharray="11 27"/>
      <path class="lane-flow" d="M697 62V430" stroke-dasharray="11 27"/>
    </g>

    <g class="grid-flow" fill="#34373B" opacity=".75" aria-hidden="true">
      <path d="M220 -20h22l-14 6h-22z M220 108h22l-14 6h-22z M220 236h22l-14 6h-22z M220 364h22l-14 6h-22z"/>
      <path d="M922 44h22l-14 6h-22z M922 172h22l-14 6h-22z M922 300h22l-14 6h-22z"/>
    </g>

    <g class="mono" font-size="10" font-weight="700">
      <text x="218" y="34" fill="#8D9299">DIST / 01.84 KM</text>
      <text x="527" y="34" fill="#8D9299">LANE 02</text>
      <text x="849" y="34" fill="#D7FF3F">03 / 03</text>
    </g>
    <rect x="218" y="47" width="700" height="2" fill="#2A2D31"/>
    <rect x="218" y="47" width="462" height="2" fill="#27D7F2"/>

    <g class="fall-one">
      <g transform="translate(575 80)">
        <rect x="-72" y="-13" width="144" height="26" fill="url(#hazard-stripe)"/>
        <rect x="-80" y="-18" width="10" height="36" fill="#FF4F5E"/>
        <rect x="70" y="-18" width="10" height="36" fill="#FF4F5E"/>
      </g>
    </g>
    <g class="fall-two">
      <g transform="translate(330 80)">
        <rect x="-72" y="-13" width="144" height="26" fill="url(#hazard-stripe)"/>
        <rect x="-80" y="-18" width="10" height="36" fill="#FF4F5E"/>
        <rect x="70" y="-18" width="10" height="36" fill="#FF4F5E"/>
      </g>
    </g>
    <g class="fall-three">
      <g transform="translate(820 80)">
        <rect x="-72" y="-13" width="144" height="26" fill="url(#hazard-stripe)"/>
        <rect x="-80" y="-18" width="10" height="36" fill="#FF4F5E"/>
        <rect x="70" y="-18" width="10" height="36" fill="#FF4F5E"/>
      </g>
    </g>

    <g class="pickup-one">
      <g transform="translate(330 108)">
        <path d="M0-12L12 0 0 12-12 0Z" fill="#D7FF3F"/>
        <path d="M0-20L20 0 0 20-20 0Z" fill="none" stroke="#D7FF3F" opacity=".45"/>
      </g>
    </g>
    <g class="pickup-two">
      <g transform="translate(820 108)">
        <path d="M0-12L12 0 0 12-12 0Z" fill="#D7FF3F"/>
        <path d="M0-20L20 0 0 20-20 0Z" fill="none" stroke="#D7FF3F" opacity=".45"/>
      </g>
    </g>
    <g class="pickup-three">
      <g transform="translate(575 108)">
        <path d="M0-12L12 0 0 12-12 0Z" fill="#D7FF3F"/>
        <path d="M0-20L20 0 0 20-20 0Z" fill="none" stroke="#D7FF3F" opacity=".45"/>
      </g>
    </g>

    <g class="burst-one" opacity="0" aria-hidden="true">
      <g transform="translate(330 336)">
        <path d="M-28 0H28M0-28V28" stroke="#D7FF3F" stroke-width="2"/>
        <rect x="-19" y="-19" width="38" height="38" fill="none" stroke="#27D7F2"/>
      </g>
    </g>
    <g class="burst-two" opacity="0" aria-hidden="true">
      <g transform="translate(820 336)">
        <path d="M-28 0H28M0-28V28" stroke="#D7FF3F" stroke-width="2"/>
        <rect x="-19" y="-19" width="38" height="38" fill="none" stroke="#27D7F2"/>
      </g>
    </g>
    <g class="burst-three" opacity="0" aria-hidden="true">
      <g transform="translate(575 336)">
        <path d="M-28 0H28M0-28V28" stroke="#D7FF3F" stroke-width="2"/>
        <rect x="-19" y="-19" width="38" height="38" fill="none" stroke="#27D7F2"/>
      </g>
    </g>

    <g class="runner">
      <g transform="translate(575 336)">
        <g class="trail" transform-origin="0 24">
          <path d="M-11 19L0 58 11 19Z" fill="#27D7F2" opacity=".28"/>
          <path d="M-5 18L0 46 5 18Z" fill="#D7FF3F" opacity=".75"/>
        </g>
        <path d="M0-29L25 23 0 14-25 23Z" fill="#F4F2EA"/>
        <path d="M0-17L10 12 0 8-10 12Z" fill="#090A0B"/>
        <path d="M0-29V-40" stroke="#D7FF3F" stroke-width="3"/>
        <path d="M-25 23L0 14 25 23" fill="none" stroke="#27D7F2" stroke-width="2"/>
      </g>
    </g>

    <g class="mono" fill="#D7FF3F" font-size="10" font-weight="800" aria-hidden="true">
      <text class="burst-one" x="358" y="327" opacity="0">+100</text>
      <text class="burst-two" x="848" y="327" opacity="0">+100</text>
      <text class="burst-three" x="603" y="327" opacity="0">+100</text>
    </g>

    <rect class="scan" x="192" y="0" width="768" height="2" fill="#27D7F2" opacity="0" aria-hidden="true"/>
  </g>
  </g>

  <g transform="translate(0 420)">
    <rect width="960" height="64" fill="#0D0E10"/>
    <rect width="8" height="64" fill="#D7FF3F"/>
    <rect x="8" width="184" height="64" fill="#121315"/>
    <path d="M192 0V64M192 0H960" stroke="#34373B"/>
    <g aria-hidden="true">
      <rect x="28" y="17" width="72" height="3" fill="#D7FF3F"/>
      <rect x="28" y="28" width="104" height="3" fill="#27D7F2"/>
      <rect x="28" y="39" width="44" height="3" fill="#FF4F5E"/>
    </g>
    <text x="218" y="39" class="bridge-sans" fill="#F4F2EA" font-size="20" font-weight="550">好好吃饭，好好睡觉，好好生活</text>
    <g aria-hidden="true">
      <path d="M560 32H932" stroke="#34373B"/>
      <rect x="650" y="28" width="8" height="8" fill="#D7FF3F"/>
      <rect x="784" y="28" width="8" height="8" fill="#27D7F2"/>
      <rect x="924" y="28" width="8" height="8" fill="#FF4F5E"/>
    </g>
  </g>

  <g transform="translate(0 484)">
<defs>
    <clipPath id="grid-clip">
      <rect x="232" y="52" width="700" height="134"/>
    </clipPath>
  </defs>

  <rect width="960" height="220" fill="#090A0B"/>
  <rect width="960" height="6" fill="#D7FF3F"/>
  <rect x="0" y="6" width="8" height="214" fill="#D7FF3F"/>
  <rect x="8" y="6" width="184" height="214" fill="#121315"/>
  <path d="M192 6V220" stroke="#34373B"/>
  <path d="M216 192H936" stroke="#25282C"/>

  <g class="mono">
    <text x="28" y="40" fill="#F4F2EA" font-size="13" font-weight="800">COMMIT</text>
    <text x="28" y="78" fill="#F4F2EA" font-size="36" font-weight="800">TRACE</text>
    <rect x="28" y="90" width="93" height="5" fill="#D7FF3F"/>
    <rect x="127" y="90" width="24" height="5" fill="#27D7F2"/>
    <text x="28" y="126" fill="#747A81" font-size="9" font-weight="700">TOTAL</text>
    <text x="28" y="151" fill="#F4F2EA" font-size="22" font-weight="800">96</text>
    <text x="110" y="126" fill="#747A81" font-size="9" font-weight="700">ACTIVE</text>
    <text x="110" y="151" fill="#27D7F2" font-size="22" font-weight="800">28</text>
    <rect class="live" x="28" y="181" width="7" height="7" fill="#D7FF3F"/>
    <text x="44" y="188" fill="#D7FF3F" font-size="9" font-weight="700">DAILY SYNC</text>
    <text x="245.21" y="38" class="mono month">AUG</text>
    <text x="311.25" y="38" class="mono month">SEP</text>
    <text x="364.08" y="38" class="mono month">OCT</text>
    <text x="416.91" y="38" class="mono month">NOV</text>
    <text x="482.94" y="38" class="mono month">DEC</text>
    <text x="535.77" y="38" class="mono month">JAN</text>
    <text x="601.81" y="38" class="mono month">FEB</text>
    <text x="654.64" y="38" class="mono month">MAR</text>
    <text x="707.47" y="38" class="mono month">APR</text>
    <text x="760.3" y="38" class="mono month">MAY</text>
    <text x="826.34" y="38" class="mono month">JUN</text>
    <text x="879.17" y="38" class="mono month">JUL</text>
    <g aria-hidden="true">
      <rect class="cell" x="232" y="112" width="9" height="14" fill="#191B1E"/>
      <rect class="cell" x="232" y="132" width="9" height="14" fill="#191B1E"/>
      <rect class="cell" x="232" y="152" width="9" height="14" fill="#191B1E"/>
      <rect class="cell" x="232" y="172" width="9" height="14" fill="#191B1E"/>
      <rect class="cell" x="245.21" y="52" width="9" height="14" fill="#191B1E"/>
      <rect class="cell" x="245.21" y="72" width="9" height="14" fill="#191B1E"/>
      <rect class="cell" x="245.21" y="92" width="9" height="14" fill="#191B1E"/>
      <rect class="cell" x="245.21" y="112" width="9" height="14" fill="#191B1E"/>
      <rect class="cell" x="245.21" y="132" width="9" height="14" fill="#191B1E"/>
      <rect class="cell" x="245.21" y="152" width="9" height="14" fill="#191B1E"/>
      <rect class="cell" x="245.21" y="172" width="9" height="14" fill="#191B1E"/>
      <rect class="cell" x="258.42" y="52" width="9" height="14" fill="#191B1E"/>
      <rect class="cell" x="258.42" y="72" width="9" height="14" fill="#191B1E"/>
      <rect class="cell" x="258.42" y="92" width="9" height="14" fill="#191B1E"/>
      <rect class="cell" x="258.42" y="112" width="9" height="14" fill="#191B1E"/>
      <rect class="cell" x="258.42" y="132" width="9" height="14" fill="#191B1E"/>
      <rect class="cell" x="258.42" y="152" width="9" height="14" fill="#191B1E"/>
      <rect class="cell" x="258.42" y="172" width="9" height="14" fill="#191B1E"/>
      <rect class="cell" x="271.62" y="52" width="9" height="14" fill="#191B1E"/>
      <rect class="cell" x="271.62" y="72" width="9" height="14" fill="#191B1E"/>
      <rect class="cell" x="271.62" y="92" width="9" height="14" fill="#191B1E"/>
      <rect class="cell" x="271.62" y="112" width="9" height="14" fill="#191B1E"/>
      <rect class="cell" x="271.62" y="132" width="9" height="14" fill="#191B1E"/>
      <rect class="cell" x="271.62" y="152" width="9" height="14" fill="#191B1E"/>
      <rect class="cell" x="271.62" y="172" width="9" height="14" fill="#191B1E"/>
      <rect class="cell" x="284.83" y="52" width="9" height="14" fill="#191B1E"/>
      <rect class="cell" x="284.83" y="72" width="9" height="14" fill="#191B1E"/>
      <rect class="cell" x="284.83" y="92" width="9" height="14" fill="#191B1E"/>
      <rect class="cell" x="284.83" y="112" width="9" height="14" fill="#191B1E"/>
      <rect class="cell" x="284.83" y="132" width="9" height="14" fill="#191B1E"/>
      <rect class="cell" x="284.83" y="152" width="9" height="14" fill="#191B1E"/>
      <rect class="cell" x="284.83" y="172" width="9" height="14" fill="#191B1E"/>
      <rect class="cell" x="298.04" y="52" width="9" height="14" fill="#191B1E"/>
      <rect class="cell" x="298.04" y="72" width="9" height="14" fill="#191B1E"/>
      <rect class="cell" x="298.04" y="92" width="9" height="14" fill="#191B1E"/>
      <rect class="cell" x="298.04" y="112" width="9" height="14" fill="#191B1E"/>
      <rect class="cell" x="298.04" y="132" width="9" height="14" fill="#191B1E"/>
      <rect class="cell" x="298.04" y="152" width="9" height="14" fill="#191B1E"/>
      <rect class="cell" x="298.04" y="172" width="9" height="14" fill="#191B1E"/>
      <rect class="cell" x="311.25" y="52" width="9" height="14" fill="#191B1E"/>
      <rect class="cell" x="311.25" y="72" width="9" height="14" fill="#191B1E"/>
      <rect class="cell" x="311.25" y="92" width="9" height="14" fill="#191B1E"/>
      <rect class="cell" x="311.25" y="112" width="9" height="14" fill="#191B1E"/>
      <rect class="cell" x="311.25" y="132" width="9" height="14" fill="#191B1E"/>
      <rect class="cell" x="311.25" y="152" width="9" height="14" fill="#191B1E"/>
      <rect class="cell" x="311.25" y="172" width="9" height="14" fill="#191B1E"/>
      <rect class="cell" x="324.45" y="52" width="9" height="14" fill="#191B1E"/>
      <rect class="cell" x="324.45" y="72" width="9" height="14" fill="#191B1E"/>
      <rect class="cell" x="324.45" y="92" width="9" height="14" fill="#191B1E"/>
      <rect class="cell" x="324.45" y="112" width="9" height="14" fill="#191B1E"/>
      <rect class="cell" x="324.45" y="132" width="9" height="14" fill="#191B1E"/>
      <rect class="cell" x="324.45" y="152" width="9" height="14" fill="#191B1E"/>
      <rect class="cell" x="324.45" y="172" width="9" height="14" fill="#191B1E"/>
      <rect class="cell" x="337.66" y="52" width="9" height="14" fill="#191B1E"/>
      <rect class="cell" x="337.66" y="72" width="9" height="14" fill="#191B1E"/>
      <rect class="cell" x="337.66" y="92" width="9" height="14" fill="#191B1E"/>
      <rect class="cell" x="337.66" y="112" width="9" height="14" fill="#191B1E"/>
      <rect class="cell" x="337.66" y="132" width="9" height="14" fill="#191B1E"/>
      <rect class="cell" x="337.66" y="152" width="9" height="14" fill="#191B1E"/>
      <rect class="cell" x="337.66" y="172" width="9" height="14" fill="#191B1E"/>
      <rect class="cell" x="350.87" y="52" width="9" height="14" fill="#191B1E"/>
      <rect class="cell" x="350.87" y="72" width="9" height="14" fill="#191B1E"/>
      <rect class="cell" x="350.87" y="92" width="9" height="14" fill="#191B1E"/>
      <rect class="cell" x="350.87" y="112" width="9" height="14" fill="#191B1E"/>
      <rect class="cell" x="350.87" y="132" width="9" height="14" fill="#191B1E"/>
      <rect class="cell" x="350.87" y="152" width="9" height="14" fill="#191B1E"/>
      <rect class="cell" x="350.87" y="172" width="9" height="14" fill="#191B1E"/>
      <rect class="cell" x="364.08" y="52" width="9" height="14" fill="#191B1E"/>
      <rect class="cell" x="364.08" y="72" width="9" height="14" fill="#191B1E"/>
      <rect class="cell" x="364.08" y="92" width="9" height="14" fill="#191B1E"/>
      <rect class="cell" x="364.08" y="112" width="9" height="14" fill="#191B1E"/>
      <rect class="cell" x="364.08" y="132" width="9" height="14" fill="#191B1E"/>
      <rect class="cell" x="364.08" y="152" width="9" height="14" fill="#191B1E"/>
      <rect class="cell" x="364.08" y="172" width="9" height="14" fill="#191B1E"/>
      <rect class="cell" x="377.28" y="52" width="9" height="14" fill="#191B1E"/>
      <rect class="cell" x="377.28" y="72" width="9" height="14" fill="#191B1E"/>
      <rect class="cell" x="377.28" y="92" width="9" height="14" fill="#191B1E"/>
      <rect class="cell" x="377.28" y="112" width="9" height="14" fill="#191B1E"/>
      <rect class="cell" x="377.28" y="132" width="9" height="14" fill="#191B1E"/>
      <rect class="cell" x="377.28" y="152" width="9" height="14" fill="#191B1E"/>
      <rect class="cell" x="377.28" y="172" width="9" height="14" fill="#191B1E"/>
      <rect class="cell" x="390.49" y="52" width="9" height="14" fill="#191B1E"/>
      <rect class="cell" x="390.49" y="72" width="9" height="14" fill="#191B1E"/>
      <rect class="cell" x="390.49" y="92" width="9" height="14" fill="#191B1E"/>
      <rect class="cell" x="390.49" y="112" width="9" height="14" fill="#191B1E"/>
      <rect class="cell" x="390.49" y="132" width="9" height="14" fill="#191B1E"/>
      <rect class="cell" x="390.49" y="152" width="9" height="14" fill="#191B1E"/>
      <rect class="cell" x="390.49" y="172" width="9" height="14" fill="#191B1E"/>
      <rect class="cell" x="403.7" y="52" width="9" height="14" fill="#191B1E"/>
      <rect class="cell" x="403.7" y="72" width="9" height="14" fill="#191B1E"/>
      <rect class="cell" x="403.7" y="92" width="9" height="14" fill="#191B1E"/>
      <rect class="cell" x="403.7" y="112" width="9" height="14" fill="#191B1E"/>
      <rect class="cell" x="403.7" y="132" width="9" height="14" fill="#191B1E"/>
      <rect class="cell" x="403.7" y="152" width="9" height="14" fill="#191B1E"/>
      <rect class="cell" x="403.7" y="172" width="9" height="14" fill="#191B1E"/>
      <rect class="cell" x="416.91" y="52" width="9" height="14" fill="#191B1E"/>
      <rect class="cell" x="416.91" y="72" width="9" height="14" fill="#191B1E"/>
      <rect class="cell" x="416.91" y="92" width="9" height="14" fill="#191B1E"/>
      <rect class="cell" x="416.91" y="112" width="9" height="14" fill="#191B1E"/>
      <rect class="cell" x="416.91" y="132" width="9" height="14" fill="#191B1E"/>
      <rect class="cell" x="416.91" y="152" width="9" height="14" fill="#191B1E"/>
      <rect class="cell" x="416.91" y="172" width="9" height="14" fill="#191B1E"/>
      <rect class="cell" x="430.11" y="52" width="9" height="14" fill="#191B1E"/>
      <rect class="cell" x="430.11" y="72" width="9" height="14" fill="#191B1E"/>
      <rect class="cell" x="430.11" y="92" width="9" height="14" fill="#191B1E"/>
      <rect class="cell" x="430.11" y="112" width="9" height="14" fill="#191B1E"/>
      <rect class="cell" x="430.11" y="132" width="9" height="14" fill="#191B1E"/>
      <rect class="cell" x="430.11" y="152" width="9" height="14" fill="#191B1E"/>
      <rect class="cell" x="430.11" y="172" width="9" height="14" fill="#191B1E"/>
      <rect class="cell" x="443.32" y="52" width="9" height="14" fill="#191B1E"/>
      <rect class="cell" x="443.32" y="72" width="9" height="14" fill="#191B1E"/>
      <rect class="cell" x="443.32" y="92" width="9" height="14" fill="#191B1E"/>
      <rect class="cell" x="443.32" y="112" width="9" height="14" fill="#191B1E"/>
      <rect class="cell" x="443.32" y="132" width="9" height="14" fill="#191B1E"/>
      <rect class="cell" x="443.32" y="152" width="9" height="14" fill="#191B1E"/>
      <rect class="cell" x="443.32" y="172" width="9" height="14" fill="#191B1E"/>
      <rect class="cell" x="456.53" y="52" width="9" height="14" fill="#191B1E"/>
      <rect class="cell" x="456.53" y="72" width="9" height="14" fill="#191B1E"/>
      <rect class="cell" x="456.53" y="92" width="9" height="14" fill="#191B1E"/>
      <rect class="cell" x="456.53" y="112" width="9" height="14" fill="#191B1E"/>
      <rect class="cell" x="456.53" y="132" width="9" height="14" fill="#191B1E"/>
      <rect class="cell" x="456.53" y="152" width="9" height="14" fill="#191B1E"/>
      <rect class="cell" x="456.53" y="172" width="9" height="14" fill="#191B1E"/>
      <rect class="cell" x="469.74" y="52" width="9" height="14" fill="#191B1E"/>
      <rect class="cell" x="469.74" y="72" width="9" height="14" fill="#191B1E"/>
      <rect class="cell" x="469.74" y="92" width="9" height="14" fill="#191B1E"/>
      <rect class="cell" x="469.74" y="112" width="9" height="14" fill="#191B1E"/>
      <rect class="cell" x="469.74" y="132" width="9" height="14" fill="#191B1E"/>
      <rect class="cell" x="469.74" y="152" width="9" height="14" fill="#191B1E"/>
      <rect class="cell" x="469.74" y="172" width="9" height="14" fill="#191B1E"/>
      <rect class="cell" x="482.94" y="52" width="9" height="14" fill="#191B1E"/>
      <rect class="cell" x="482.94" y="72" width="9" height="14" fill="#191B1E"/>
      <rect class="cell" x="482.94" y="92" width="9" height="14" fill="#191B1E"/>
      <rect class="cell" x="482.94" y="112" width="9" height="14" fill="#191B1E"/>
      <rect class="cell" x="482.94" y="132" width="9" height="14" fill="#191B1E"/>
      <rect class="cell" x="482.94" y="152" width="9" height="14" fill="#191B1E"/>
      <rect class="cell" x="482.94" y="172" width="9" height="14" fill="#191B1E"/>
      <rect class="cell" x="496.15" y="52" width="9" height="14" fill="#191B1E"/>
      <rect class="cell" x="496.15" y="72" width="9" height="14" fill="#191B1E"/>
      <rect class="cell" x="496.15" y="92" width="9" height="14" fill="#191B1E"/>
      <rect class="cell" x="496.15" y="112" width="9" height="14" fill="#191B1E"/>
      <rect class="cell" x="496.15" y="132" width="9" height="14" fill="#191B1E"/>
      <rect class="cell" x="496.15" y="152" width="9" height="14" fill="#191B1E"/>
      <rect class="cell" x="496.15" y="172" width="9" height="14" fill="#191B1E"/>
      <rect class="cell" x="509.36" y="52" width="9" height="14" fill="#191B1E"/>
      <rect class="cell" x="509.36" y="72" width="9" height="14" fill="#191B1E"/>
      <rect class="cell" x="509.36" y="92" width="9" height="14" fill="#191B1E"/>
      <rect class="cell" x="509.36" y="112" width="9" height="14" fill="#191B1E"/>
      <rect class="cell" x="509.36" y="132" width="9" height="14" fill="#191B1E"/>
      <rect class="cell" x="509.36" y="152" width="9" height="14" fill="#191B1E"/>
      <rect class="cell" x="509.36" y="172" width="9" height="14" fill="#191B1E"/>
      <rect class="cell" x="522.57" y="52" width="9" height="14" fill="#191B1E"/>
      <rect class="cell" x="522.57" y="72" width="9" height="14" fill="#191B1E"/>
      <rect class="cell" x="522.57" y="92" width="9" height="14" fill="#191B1E"/>
      <rect class="cell" x="522.57" y="112" width="9" height="14" fill="#191B1E"/>
      <rect class="cell" x="522.57" y="132" width="9" height="14" fill="#191B1E"/>
      <rect class="cell" x="522.57" y="152" width="9" height="14" fill="#191B1E"/>
      <rect class="cell" x="522.57" y="172" width="9" height="14" fill="#191B1E"/>
      <rect class="cell" x="535.77" y="52" width="9" height="14" fill="#191B1E"/>
      <rect class="cell" x="535.77" y="72" width="9" height="14" fill="#191B1E"/>
      <rect class="cell" x="535.77" y="92" width="9" height="14" fill="#191B1E"/>
      <rect class="cell" x="535.77" y="112" width="9" height="14" fill="#191B1E"/>
      <rect class="cell" x="535.77" y="132" width="9" height="14" fill="#191B1E"/>
      <rect class="cell" x="535.77" y="152" width="9" height="14" fill="#191B1E"/>
      <rect class="cell" x="535.77" y="172" width="9" height="14" fill="#191B1E"/>
      <rect class="cell" x="548.98" y="52" width="9" height="14" fill="#191B1E"/>
      <rect class="cell" x="548.98" y="72" width="9" height="14" fill="#191B1E"/>
      <rect class="cell" x="548.98" y="92" width="9" height="14" fill="#191B1E"/>
      <rect class="cell" x="548.98" y="112" width="9" height="14" fill="#191B1E"/>
      <rect class="cell" x="548.98" y="132" width="9" height="14" fill="#191B1E"/>
      <rect class="cell" x="548.98" y="152" width="9" height="14" fill="#191B1E"/>
      <rect class="cell" x="548.98" y="172" width="9" height="14" fill="#191B1E"/>
      <rect class="cell" x="562.19" y="52" width="9" height="14" fill="#191B1E"/>
      <rect class="cell" x="562.19" y="72" width="9" height="14" fill="#191B1E"/>
      <rect class="cell" x="562.19" y="92" width="9" height="14" fill="#191B1E"/>
      <rect class="cell" x="562.19" y="112" width="9" height="14" fill="#191B1E"/>
      <rect class="cell" x="562.19" y="132" width="9" height="14" fill="#191B1E"/>
      <rect class="cell" x="562.19" y="152" width="9" height="14" fill="#191B1E"/>
      <rect class="cell" x="562.19" y="172" width="9" height="14" fill="#191B1E"/>
      <rect class="cell" x="575.4" y="52" width="9" height="14" fill="#191B1E"/>
      <rect class="cell" x="575.4" y="72" width="9" height="14" fill="#191B1E"/>
      <rect class="cell" x="575.4" y="92" width="9" height="14" fill="#191B1E"/>
      <rect class="cell" x="575.4" y="112" width="9" height="14" fill="#191B1E"/>
      <rect class="cell" x="575.4" y="132" width="9" height="14" fill="#191B1E"/>
      <rect class="cell" x="575.4" y="152" width="9" height="14" fill="#191B1E"/>
      <rect class="cell" x="575.4" y="172" width="9" height="14" fill="#191B1E"/>
      <rect class="cell" x="588.6" y="52" width="9" height="14" fill="#191B1E"/>
      <rect class="cell" x="588.6" y="72" width="9" height="14" fill="#191B1E"/>
      <rect class="cell" x="588.6" y="92" width="9" height="14" fill="#191B1E"/>
      <rect class="cell" x="588.6" y="112" width="9" height="14" fill="#191B1E"/>
      <rect class="cell" x="588.6" y="132" width="9" height="14" fill="#191B1E"/>
      <rect class="cell" x="588.6" y="152" width="9" height="14" fill="#191B1E"/>
      <rect class="cell" x="588.6" y="172" width="9" height="14" fill="#191B1E"/>
      <rect class="cell" x="601.81" y="52" width="9" height="14" fill="#191B1E"/>
      <rect class="cell" x="601.81" y="72" width="9" height="14" fill="#191B1E"/>
      <rect class="cell" x="601.81" y="92" width="9" height="14" fill="#191B1E"/>
      <rect class="cell" x="601.81" y="112" width="9" height="14" fill="#191B1E"/>
      <rect class="cell" x="601.81" y="132" width="9" height="14" fill="#191B1E"/>
      <rect class="cell" x="601.81" y="152" width="9" height="14" fill="#191B1E"/>
      <rect class="cell" x="601.81" y="172" width="9" height="14" fill="#191B1E"/>
      <rect class="cell" x="615.02" y="52" width="9" height="14" fill="#191B1E"/>
      <rect class="cell" x="615.02" y="72" width="9" height="14" fill="#191B1E"/>
      <rect class="cell" x="615.02" y="92" width="9" height="14" fill="#191B1E"/>
      <rect class="cell" x="615.02" y="112" width="9" height="14" fill="#191B1E"/>
      <rect class="cell" x="615.02" y="132" width="9" height="14" fill="#191B1E"/>
      <rect class="cell" x="615.02" y="152" width="9" height="14" fill="#191B1E"/>
      <rect class="cell" x="615.02" y="172" width="9" height="14" fill="#191B1E"/>
      <rect class="cell" x="628.23" y="52" width="9" height="14" fill="#191B1E"/>
      <rect class="cell" x="628.23" y="72" width="9" height="14" fill="#191B1E"/>
      <rect class="cell" x="628.23" y="92" width="9" height="14" fill="#2B452D"/>
      <rect class="cell" x="628.23" y="112" width="9" height="14" fill="#191B1E"/>
      <rect class="cell" x="628.23" y="132" width="9" height="14" fill="#191B1E"/>
      <rect class="cell" x="628.23" y="152" width="9" height="14" fill="#191B1E"/>
      <rect class="cell" x="628.23" y="172" width="9" height="14" fill="#191B1E"/>
      <rect class="cell" x="641.43" y="52" width="9" height="14" fill="#191B1E"/>
      <rect class="cell" x="641.43" y="72" width="9" height="14" fill="#191B1E"/>
      <rect class="cell" x="641.43" y="92" width="9" height="14" fill="#191B1E"/>
      <rect class="cell" x="641.43" y="112" width="9" height="14" fill="#191B1E"/>
      <rect class="cell" x="641.43" y="132" width="9" height="14" fill="#191B1E"/>
      <rect class="cell" x="641.43" y="152" width="9" height="14" fill="#191B1E"/>
      <rect class="cell" x="641.43" y="172" width="9" height="14" fill="#191B1E"/>
      <rect class="cell" x="654.64" y="52" width="9" height="14" fill="#191B1E"/>
      <rect class="cell" x="654.64" y="72" width="9" height="14" fill="#191B1E"/>
      <rect class="cell" x="654.64" y="92" width="9" height="14" fill="#191B1E"/>
      <rect class="cell" x="654.64" y="112" width="9" height="14" fill="#191B1E"/>
      <rect class="cell" x="654.64" y="132" width="9" height="14" fill="#191B1E"/>
      <rect class="cell" x="654.64" y="152" width="9" height="14" fill="#191B1E"/>
      <rect class="cell" x="654.64" y="172" width="9" height="14" fill="#191B1E"/>
      <rect class="cell" x="667.85" y="52" width="9" height="14" fill="#191B1E"/>
      <rect class="cell" x="667.85" y="72" width="9" height="14" fill="#191B1E"/>
      <rect class="cell" x="667.85" y="92" width="9" height="14" fill="#191B1E"/>
      <rect class="cell" x="667.85" y="112" width="9" height="14" fill="#191B1E"/>
      <rect class="cell" x="667.85" y="132" width="9" height="14" fill="#191B1E"/>
      <rect class="cell" x="667.85" y="152" width="9" height="14" fill="#191B1E"/>
      <rect class="cell" x="667.85" y="172" width="9" height="14" fill="#191B1E"/>
      <rect class="cell" x="681.06" y="52" width="9" height="14" fill="#191B1E"/>
      <rect class="cell" x="681.06" y="72" width="9" height="14" fill="#191B1E"/>
      <rect class="cell" x="681.06" y="92" width="9" height="14" fill="#191B1E"/>
      <rect class="cell" x="681.06" y="112" width="9" height="14" fill="#2B452D"/>
      <rect class="cell" x="681.06" y="132" width="9" height="14" fill="#191B1E"/>
      <rect class="cell" x="681.06" y="152" width="9" height="14" fill="#191B1E"/>
      <rect class="cell" x="681.06" y="172" width="9" height="14" fill="#191B1E"/>
      <rect class="cell" x="694.26" y="52" width="9" height="14" fill="#191B1E"/>
      <rect class="cell" x="694.26" y="72" width="9" height="14" fill="#191B1E"/>
      <rect class="cell" x="694.26" y="92" width="9" height="14" fill="#191B1E"/>
      <rect class="cell" x="694.26" y="112" width="9" height="14" fill="#191B1E"/>
      <rect class="cell" x="694.26" y="132" width="9" height="14" fill="#191B1E"/>
      <rect class="cell" x="694.26" y="152" width="9" height="14" fill="#191B1E"/>
      <rect class="cell" x="694.26" y="172" width="9" height="14" fill="#191B1E"/>
      <rect class="cell" x="707.47" y="52" width="9" height="14" fill="#191B1E"/>
      <rect class="cell" x="707.47" y="72" width="9" height="14" fill="#191B1E"/>
      <rect class="cell" x="707.47" y="92" width="9" height="14" fill="#191B1E"/>
      <rect class="cell" x="707.47" y="112" width="9" height="14" fill="#191B1E"/>
      <rect class="cell" x="707.47" y="132" width="9" height="14" fill="#191B1E"/>
      <rect class="cell" x="707.47" y="152" width="9" height="14" fill="#191B1E"/>
      <rect class="cell" x="707.47" y="172" width="9" height="14" fill="#2B452D"/>
      <rect class="cell" x="720.68" y="52" width="9" height="14" fill="#191B1E"/>
      <rect class="cell" x="720.68" y="72" width="9" height="14" fill="#191B1E"/>
      <rect class="cell" x="720.68" y="92" width="9" height="14" fill="#191B1E"/>
      <rect class="cell" x="720.68" y="112" width="9" height="14" fill="#191B1E"/>
      <rect class="cell" x="720.68" y="132" width="9" height="14" fill="#191B1E"/>
      <rect class="cell" x="720.68" y="152" width="9" height="14" fill="#191B1E"/>
      <rect class="cell" x="720.68" y="172" width="9" height="14" fill="#191B1E"/>
      <rect class="cell" x="733.89" y="52" width="9" height="14" fill="#191B1E"/>
      <rect class="cell" x="733.89" y="72" width="9" height="14" fill="#191B1E"/>
      <rect class="cell" x="733.89" y="92" width="9" height="14" fill="#191B1E"/>
      <rect class="cell" x="733.89" y="112" width="9" height="14" fill="#191B1E"/>
      <rect class="cell" x="733.89" y="132" width="9" height="14" fill="#191B1E"/>
      <rect class="cell" x="733.89" y="152" width="9" height="14" fill="#191B1E"/>
      <rect class="cell" x="733.89" y="172" width="9" height="14" fill="#191B1E"/>
      <rect class="cell" x="747.09" y="52" width="9" height="14" fill="#191B1E"/>
      <rect class="cell" x="747.09" y="72" width="9" height="14" fill="#191B1E"/>
      <rect class="cell" x="747.09" y="92" width="9" height="14" fill="#191B1E"/>
      <rect class="cell" x="747.09" y="112" width="9" height="14" fill="#191B1E"/>
      <rect class="cell" x="747.09" y="132" width="9" height="14" fill="#191B1E"/>
      <rect class="cell" x="747.09" y="152" width="9" height="14" fill="#54742B"/>
      <rect class="cell" x="747.09" y="172" width="9" height="14" fill="#191B1E"/>
      <rect class="cell" x="760.3" y="52" width="9" height="14" fill="#191B1E"/>
      <rect class="cell" x="760.3" y="72" width="9" height="14" fill="#2B452D"/>
      <rect class="cell" x="760.3" y="92" width="9" height="14" fill="#54742B"/>
      <rect class="cell" x="760.3" y="112" width="9" height="14" fill="#54742B"/>
      <rect class="cell" x="760.3" y="132" width="9" height="14" fill="#191B1E"/>
      <rect class="cell" x="760.3" y="152" width="9" height="14" fill="#54742B"/>
      <rect class="cell" x="760.3" y="172" width="9" height="14" fill="#91B52E"/>
      <rect class="cell" x="773.51" y="52" width="9" height="14" fill="#191B1E"/>
      <rect class="cell" x="773.51" y="72" width="9" height="14" fill="#191B1E"/>
      <rect class="cell" x="773.51" y="92" width="9" height="14" fill="#191B1E"/>
      <rect class="cell peak phase-0" x="773.51" y="112" width="9" height="14" fill="#D7FF3F"/>
      <rect class="cell" x="773.51" y="132" width="9" height="14" fill="#2B452D"/>
      <rect class="cell" x="773.51" y="152" width="9" height="14" fill="#2B452D"/>
      <rect class="cell" x="773.51" y="172" width="9" height="14" fill="#2B452D"/>
      <rect class="cell" x="786.72" y="52" width="9" height="14" fill="#191B1E"/>
      <rect class="cell" x="786.72" y="72" width="9" height="14" fill="#191B1E"/>
      <rect class="cell" x="786.72" y="92" width="9" height="14" fill="#191B1E"/>
      <rect class="cell" x="786.72" y="112" width="9" height="14" fill="#54742B"/>
      <rect class="cell" x="786.72" y="132" width="9" height="14" fill="#191B1E"/>
      <rect class="cell" x="786.72" y="152" width="9" height="14" fill="#2B452D"/>
      <rect class="cell" x="786.72" y="172" width="9" height="14" fill="#191B1E"/>
      <rect class="cell" x="799.92" y="52" width="9" height="14" fill="#191B1E"/>
      <rect class="cell" x="799.92" y="72" width="9" height="14" fill="#191B1E"/>
      <rect class="cell" x="799.92" y="92" width="9" height="14" fill="#191B1E"/>
      <rect class="cell" x="799.92" y="112" width="9" height="14" fill="#191B1E"/>
      <rect class="cell" x="799.92" y="132" width="9" height="14" fill="#2B452D"/>
      <rect class="cell" x="799.92" y="152" width="9" height="14" fill="#191B1E"/>
      <rect class="cell" x="799.92" y="172" width="9" height="14" fill="#191B1E"/>
      <rect class="cell" x="813.13" y="52" width="9" height="14" fill="#191B1E"/>
      <rect class="cell" x="813.13" y="72" width="9" height="14" fill="#54742B"/>
      <rect class="cell" x="813.13" y="92" width="9" height="14" fill="#2B452D"/>
      <rect class="cell" x="813.13" y="112" width="9" height="14" fill="#91B52E"/>
      <rect class="cell" x="813.13" y="132" width="9" height="14" fill="#2B452D"/>
      <rect class="cell" x="813.13" y="152" width="9" height="14" fill="#54742B"/>
      <rect class="cell" x="813.13" y="172" width="9" height="14" fill="#191B1E"/>
      <rect class="cell" x="826.34" y="52" width="9" height="14" fill="#191B1E"/>
      <rect class="cell" x="826.34" y="72" width="9" height="14" fill="#191B1E"/>
      <rect class="cell" x="826.34" y="92" width="9" height="14" fill="#191B1E"/>
      <rect class="cell" x="826.34" y="112" width="9" height="14" fill="#191B1E"/>
      <rect class="cell" x="826.34" y="132" width="9" height="14" fill="#2B452D"/>
      <rect class="cell" x="826.34" y="152" width="9" height="14" fill="#191B1E"/>
      <rect class="cell" x="826.34" y="172" width="9" height="14" fill="#191B1E"/>
      <rect class="cell" x="839.55" y="52" width="9" height="14" fill="#191B1E"/>
      <rect class="cell" x="839.55" y="72" width="9" height="14" fill="#191B1E"/>
      <rect class="cell" x="839.55" y="92" width="9" height="14" fill="#191B1E"/>
      <rect class="cell" x="839.55" y="112" width="9" height="14" fill="#191B1E"/>
      <rect class="cell" x="839.55" y="132" width="9" height="14" fill="#191B1E"/>
      <rect class="cell" x="839.55" y="152" width="9" height="14" fill="#191B1E"/>
      <rect class="cell" x="839.55" y="172" width="9" height="14" fill="#191B1E"/>
      <rect class="cell" x="852.75" y="52" width="9" height="14" fill="#191B1E"/>
      <rect class="cell" x="852.75" y="72" width="9" height="14" fill="#191B1E"/>
      <rect class="cell" x="852.75" y="92" width="9" height="14" fill="#191B1E"/>
      <rect class="cell" x="852.75" y="112" width="9" height="14" fill="#191B1E"/>
      <rect class="cell" x="852.75" y="132" width="9" height="14" fill="#191B1E"/>
      <rect class="cell" x="852.75" y="152" width="9" height="14" fill="#191B1E"/>
      <rect class="cell" x="852.75" y="172" width="9" height="14" fill="#191B1E"/>
      <rect class="cell" x="865.96" y="52" width="9" height="14" fill="#191B1E"/>
      <rect class="cell" x="865.96" y="72" width="9" height="14" fill="#191B1E"/>
      <rect class="cell" x="865.96" y="92" width="9" height="14" fill="#191B1E"/>
      <rect class="cell" x="865.96" y="112" width="9" height="14" fill="#191B1E"/>
      <rect class="cell" x="865.96" y="132" width="9" height="14" fill="#191B1E"/>
      <rect class="cell" x="865.96" y="152" width="9" height="14" fill="#191B1E"/>
      <rect class="cell" x="865.96" y="172" width="9" height="14" fill="#191B1E"/>
      <rect class="cell" x="879.17" y="52" width="9" height="14" fill="#191B1E"/>
      <rect class="cell" x="879.17" y="72" width="9" height="14" fill="#191B1E"/>
      <rect class="cell" x="879.17" y="92" width="9" height="14" fill="#191B1E"/>
      <rect class="cell" x="879.17" y="112" width="9" height="14" fill="#191B1E"/>
      <rect class="cell" x="879.17" y="132" width="9" height="14" fill="#191B1E"/>
      <rect class="cell" x="879.17" y="152" width="9" height="14" fill="#191B1E"/>
      <rect class="cell" x="879.17" y="172" width="9" height="14" fill="#191B1E"/>
      <rect class="cell" x="892.38" y="52" width="9" height="14" fill="#191B1E"/>
      <rect class="cell" x="892.38" y="72" width="9" height="14" fill="#191B1E"/>
      <rect class="cell" x="892.38" y="92" width="9" height="14" fill="#191B1E"/>
      <rect class="cell" x="892.38" y="112" width="9" height="14" fill="#191B1E"/>
      <rect class="cell" x="892.38" y="132" width="9" height="14" fill="#2B452D"/>
      <rect class="cell" x="892.38" y="152" width="9" height="14" fill="#191B1E"/>
      <rect class="cell" x="892.38" y="172" width="9" height="14" fill="#191B1E"/>
      <rect class="cell" x="905.58" y="52" width="9" height="14" fill="#191B1E"/>
      <rect class="cell" x="905.58" y="72" width="9" height="14" fill="#191B1E"/>
      <rect class="cell" x="905.58" y="92" width="9" height="14" fill="#2B452D"/>
      <rect class="cell" x="905.58" y="112" width="9" height="14" fill="#91B52E"/>
      <rect class="cell" x="905.58" y="132" width="9" height="14" fill="#2B452D"/>
      <rect class="cell" x="905.58" y="152" width="9" height="14" fill="#2B452D"/>
      <rect class="cell" x="905.58" y="172" width="9" height="14" fill="#191B1E"/>
      <rect class="cell" x="918.79" y="52" width="9" height="14" fill="#191B1E"/>
      <rect class="cell" x="918.79" y="72" width="9" height="14" fill="#2B452D"/>
      <rect class="cell" x="918.79" y="92" width="9" height="14" fill="#191B1E"/>
      <rect class="cell" x="918.79" y="112" width="9" height="14" fill="#191B1E"/>
      <rect class="current" x="916.79" y="110" width="13" height="18" fill="none" stroke="#FF4F5E" stroke-width="2"/>
    </g>
    <text x="216" y="209" fill="#747A81" font-size="9" font-weight="700">365 DAYS</text>
    <text x="797" y="209" fill="#747A81" font-size="9" font-weight="700">UPDATED / 2026-07-22</text>
    <g transform="translate(676 201)" aria-hidden="true">
      <rect width="8" height="8" fill="#191B1E"/>
      <rect x="13" width="8" height="8" fill="#2B452D"/>
      <rect x="26" width="8" height="8" fill="#54742B"/>
      <rect x="39" width="8" height="8" fill="#91B52E"/>
      <rect x="52" width="8" height="8" fill="#D7FF3F"/>
    </g>
  </g>

  <g clip-path="url(#grid-clip)" aria-hidden="true">
    <g class="trace-scan">
      <rect x="188" y="52" width="44" height="134" fill="#27D7F2" opacity=".14"/>
      <path d="M221 52V186" stroke="#27D7F2" opacity=".35"/>
      <path d="M231 52V186" stroke="#27D7F2" stroke-width="2"/>
    </g>
  </g>
  </g>
</svg>
