<?xml version="1.0" encoding="UTF-8"?>
<svg xmlns="http://www.w3.org/2000/svg"
     width="720"
     height="1024"
     viewBox="0 0 720 1024"
     role="img"
     aria-labelledby="profile-title profile-desc"
     focusable="false">
  <title id="profile-title">stophemo 的个人主页</title>
  <desc id="profile-desc">自动运行的三轨躲避游戏，文字“好好吃饭，好好睡觉，好好生活”，以及过去 365 天的真实 GitHub 贡献轨迹。</desc>

  <style>
.sans {
      font-family: Inter, ui-sans-serif, -apple-system, BlinkMacSystemFont, "Segoe UI", Arial, sans-serif;
      letter-spacing: 0;
    }

    .mono {
      font-family: "SFMono-Regular", Consolas, "Liberation Mono", Menlo, monospace;
      letter-spacing: 0;
    }

    .grid-flow { animation: grid-flow .72s linear infinite; }
    .lane-flow { animation: lane-flow .54s linear infinite; }
    .runner { animation: runner-shift 7.2s cubic-bezier(.65, 0, .35, 1) infinite; }
    .trail { animation: trail-pulse .42s ease-in-out infinite alternate; }
    .fall-one { animation: fall-one 7.2s linear infinite; }
    .fall-two { animation: fall-two 7.2s linear infinite; }
    .fall-three { animation: fall-three 7.2s linear infinite; }
    .pickup-one { animation: pickup-one 7.2s linear infinite; }
    .pickup-two { animation: pickup-two 7.2s linear infinite; }
    .pickup-three { animation: pickup-three 7.2s linear infinite; }
    .burst-one,
    .burst-two,
    .burst-three {
      transform-box: fill-box;
      transform-origin: center;
    }
    .burst-one { animation: burst-one 7.2s ease-out infinite; }
    .burst-two { animation: burst-two 7.2s ease-out infinite; }
    .burst-three { animation: burst-three 7.2s ease-out infinite; }
    .score-zero { animation: score-zero 7.2s steps(1, end) infinite; }
    .score-one { animation: score-one 7.2s steps(1, end) infinite; }
    .score-two { animation: score-two 7.2s steps(1, end) infinite; }
    .score-three { animation: score-three 7.2s steps(1, end) infinite; }
    .status-flash { animation: status-flash 2.4s steps(1, end) infinite; }
    .scan { animation: scan 3.6s linear infinite; }

    @keyframes grid-flow {
      to { transform: translateY(36px); }
    }

    @keyframes lane-flow {
      to { stroke-dashoffset: -42; }
    }

    @keyframes runner-shift {
      0%, 14% { transform: translateX(0); }
      20%, 38% { transform: translateX(-225px); }
      44%, 68% { transform: translateX(225px); }
      74%, 100% { transform: translateX(0); }
    }

    @keyframes trail-pulse {
      from { opacity: .35; transform: scaleY(.72); }
      to { opacity: .95; transform: scaleY(1); }
    }

    @keyframes fall-one {
      0% { transform: translateY(-200px); opacity: 0; }
      3% { opacity: 1; }
      37% { transform: translateY(500px); opacity: 1; }
      39%, 100% { transform: translateY(500px); opacity: 0; }
    }

    @keyframes fall-two {
      0%, 31% { transform: translateY(-200px); opacity: 0; }
      34% { opacity: 1; }
      69% { transform: translateY(500px); opacity: 1; }
      71%, 100% { transform: translateY(500px); opacity: 0; }
    }

    @keyframes fall-three {
      0%, 62% { transform: translateY(-200px); opacity: 0; }
      65% { opacity: 1; }
      98% { transform: translateY(500px); opacity: 1; }
      100% { transform: translateY(500px); opacity: 0; }
    }

    @keyframes pickup-one {
      0% { transform: translateY(-200px); opacity: 0; }
      3% { opacity: 1; }
      30% { transform: translateY(297px); opacity: 1; }
      31%, 100% { transform: translateY(297px); opacity: 0; }
    }

    @keyframes pickup-two {
      0%, 31% { transform: translateY(-200px); opacity: 0; }
      34% { opacity: 1; }
      61% { transform: translateY(297px); opacity: 1; }
      62%, 100% { transform: translateY(297px); opacity: 0; }
    }

    @keyframes pickup-three {
      0%, 62% { transform: translateY(-200px); opacity: 0; }
      65% { opacity: 1; }
      92% { transform: translateY(297px); opacity: 1; }
      93%, 100% { transform: translateY(297px); opacity: 0; }
    }

    @keyframes burst-one {
      0%, 27% { transform: scale(.4); opacity: 0; }
      30% { opacity: 1; }
      35%, 100% { transform: scale(1.7); opacity: 0; }
    }

    @keyframes burst-two {
      0%, 58% { transform: scale(.4); opacity: 0; }
      61% { opacity: 1; }
      66%, 100% { transform: scale(1.7); opacity: 0; }
    }

    @keyframes burst-three {
      0%, 89% { transform: scale(.4); opacity: 0; }
      92% { opacity: 1; }
      97%, 100% { transform: scale(1.7); opacity: 0; }
    }

    @keyframes score-zero { 0%, 30% { opacity: 1; } 31%, 100% { opacity: 0; } }
    @keyframes score-one { 0%, 30% { opacity: 0; } 31%, 61% { opacity: 1; } 62%, 100% { opacity: 0; } }
    @keyframes score-two { 0%, 61% { opacity: 0; } 62%, 92% { opacity: 1; } 93%, 100% { opacity: 0; } }
    @keyframes score-three { 0%, 92% { opacity: 0; } 93%, 100% { opacity: 1; } }

    @keyframes status-flash {
      0%, 76% { opacity: 1; }
      77%, 82% { opacity: .2; }
      83%, 100% { opacity: 1; }
    }

    @keyframes scan {
      from { transform: translateY(-72px); opacity: 0; }
      10%, 90% { opacity: .22; }
      to { transform: translateY(570px); opacity: 0; }
    }

    @media (prefers-reduced-motion: reduce) {
      .grid-flow,
      .lane-flow,
      .runner,
      .trail,
      .fall-one,
      .fall-two,
      .fall-three,
      .pickup-one,
      .pickup-two,
      .pickup-three,
      .burst-one,
      .burst-two,
      .burst-three,
      .score-zero,
      .score-one,
      .score-two,
      .score-three,
      .status-flash,
      .scan {
        animation: none !important;
      }

      .burst-one,
      .burst-two,
      .burst-three,
      .score-one,
      .score-two,
      .score-three,
      .scan { opacity: 0; }

      .fall-one { transform: translateY(80px); opacity: 1; }
      .pickup-one { transform: translateY(180px); opacity: 1; }
      .fall-two,
      .fall-three,
      .pickup-two,
      .pickup-three { opacity: 0; }

      .score-zero { opacity: 1; }
    }

.mono {
      font-family: "SFMono-Regular", Consolas, "Liberation Mono", Menlo, monospace;
      letter-spacing: 0;
    }

    .cell { shape-rendering: crispEdges; }
    .month { fill: #747A81; font-size: 10px; font-weight: 700; }
    .trace-scan { animation: trace-scan 8s cubic-bezier(.45, 0, .55, 1) infinite; }
    .peak { animation: peak 3.2s ease-in-out infinite; }
    .phase-1 { animation-delay: -.8s; }
    .phase-2 { animation-delay: -1.6s; }
    .phase-3 { animation-delay: -2.4s; }
    .current { animation: current 1.8s steps(2, end) infinite; }
    .live { animation: live 2.4s steps(2, end) infinite; }

    @keyframes trace-scan {
      from { transform: translateX(0); }
      to { transform: translateX(738px); }
    }

    @keyframes peak {
      0%, 100% { opacity: 1; }
      50% { opacity: .52; }
    }

    @keyframes current {
      0%, 62% { opacity: 1; }
      63%, 100% { opacity: .25; }
    }

    @keyframes live {
      0%, 74% { opacity: 1; }
      75%, 100% { opacity: .28; }
    }

    @media (prefers-reduced-motion: reduce) {
      .trace-scan,
      .peak,
      .current,
      .live { animation: none !important; }

      .trace-scan { display: none; }
      .peak,
      .current,
      .live { opacity: 1; }
    }

    .bridge-sans {
      font-family: -apple-system, BlinkMacSystemFont, "PingFang SC", "Microsoft YaHei", Arial, sans-serif;
      letter-spacing: 0;
    }
  </style>

  <g>
<defs>
    <clipPath id="playfield-clip">
      <rect y="118" width="720" height="522"/>
    </clipPath>
    <pattern id="hazard-stripe" width="14" height="14" patternUnits="userSpaceOnUse" patternTransform="rotate(45)">
      <rect width="7" height="14" fill="#FF4F5E"/>
      <rect x="7" width="7" height="14" fill="#151618"/>
    </pattern>
  </defs>

  <rect width="720" height="640" fill="#090A0B"/>
  <rect width="720" height="8" fill="#D7FF3F"/>
  <rect y="8" width="720" height="110" fill="#121315"/>
  <path d="M0 118H720" stroke="#34373B"/>

  <g class="mono">
    <text x="32" y="42" fill="#F4F2EA" font-size="20" font-weight="800">STOPHEMO</text>
    <text x="32" y="84" fill="#F4F2EA" font-size="34" font-weight="800">SIDE QUEST</text>
    <text x="249" y="84" fill="#27D7F2" font-size="12" font-weight="800">/ 07</text>

    <text x="516" y="36" fill="#747A81" font-size="10" font-weight="700">SCORE</text>
    <g fill="#F4F2EA" font-size="27" font-weight="800">
      <text class="score-zero" x="516" y="67">00420</text>
      <text class="score-one" x="516" y="67" opacity="0">00520</text>
      <text class="score-two" x="516" y="67" opacity="0">00620</text>
      <text class="score-three" x="516" y="67" opacity="0">00720</text>
    </g>
    <text x="516" y="95" fill="#27D7F2" font-size="12" font-weight="800">CHAIN x03</text>

    <g class="status-flash">
      <rect x="414" y="31" width="7" height="7" fill="#D7FF3F"/>
      <text x="430" y="38" fill="#D7FF3F" font-size="10" font-weight="700">RUNNING</text>
    </g>
  </g>

  <g clip-path="url(#playfield-clip)">
    <rect y="118" width="720" height="522" fill="#0D0E10"/>
    <rect y="118" width="720" height="48" fill="#151618"/>
    <path d="M0 166H720" stroke="#34373B"/>

    <g class="grid-flow" fill="none" stroke="#25282C" stroke-width="1" aria-hidden="true">
      <path d="M0 130H720 M0 166H720 M0 202H720 M0 238H720 M0 274H720 M0 310H720 M0 346H720 M0 382H720 M0 418H720 M0 454H720 M0 490H720 M0 526H720 M0 562H720 M0 598H720 M0 634H720"/>
    </g>

    <rect x="15" y="182" width="210" height="458" fill="#101113"/>
    <rect x="240" y="182" width="240" height="458" fill="#0B0C0E"/>
    <rect x="495" y="182" width="210" height="458" fill="#101113"/>

    <g fill="none" stroke="#4A4E54" stroke-width="2" aria-hidden="true">
      <path class="lane-flow" d="M240 166V650" stroke-dasharray="12 30"/>
      <path class="lane-flow" d="M480 166V650" stroke-dasharray="12 30"/>
    </g>

    <g class="grid-flow" fill="#34373B" opacity=".75" aria-hidden="true">
      <path d="M24 146h24l-15 7H9z M24 290h24l-15 7H9z M24 434h24l-15 7H9z M24 578h24l-15 7H9z"/>
      <path d="M687 218h24l-15 7h-24z M687 362h24l-15 7h-24z M687 506h24l-15 7h-24z"/>
    </g>

    <g class="mono" font-size="10" font-weight="700">
      <text x="24" y="148" fill="#8D9299">DIST / 01.84 KM</text>
      <text x="319" y="148" fill="#8D9299">LANE 02</text>
      <text x="625" y="148" fill="#D7FF3F">03 / 03</text>
    </g>

    <g class="fall-one">
      <g transform="translate(360 205)">
        <rect x="-70" y="-14" width="140" height="28" fill="url(#hazard-stripe)"/>
        <rect x="-79" y="-19" width="11" height="38" fill="#FF4F5E"/>
        <rect x="68" y="-19" width="11" height="38" fill="#FF4F5E"/>
      </g>
    </g>
    <g class="fall-two">
      <g transform="translate(135 205)">
        <rect x="-70" y="-14" width="140" height="28" fill="url(#hazard-stripe)"/>
        <rect x="-79" y="-19" width="11" height="38" fill="#FF4F5E"/>
        <rect x="68" y="-19" width="11" height="38" fill="#FF4F5E"/>
      </g>
    </g>
    <g class="fall-three">
      <g transform="translate(585 205)">
        <rect x="-70" y="-14" width="140" height="28" fill="url(#hazard-stripe)"/>
        <rect x="-79" y="-19" width="11" height="38" fill="#FF4F5E"/>
        <rect x="68" y="-19" width="11" height="38" fill="#FF4F5E"/>
      </g>
    </g>

    <g class="pickup-one">
      <g transform="translate(135 245)">
        <path d="M0-13L13 0 0 13-13 0Z" fill="#D7FF3F"/>
        <path d="M0-22L22 0 0 22-22 0Z" fill="none" stroke="#D7FF3F" opacity=".45"/>
      </g>
    </g>
    <g class="pickup-two">
      <g transform="translate(585 245)">
        <path d="M0-13L13 0 0 13-13 0Z" fill="#D7FF3F"/>
        <path d="M0-22L22 0 0 22-22 0Z" fill="none" stroke="#D7FF3F" opacity=".45"/>
      </g>
    </g>
    <g class="pickup-three">
      <g transform="translate(360 245)">
        <path d="M0-13L13 0 0 13-13 0Z" fill="#D7FF3F"/>
        <path d="M0-22L22 0 0 22-22 0Z" fill="none" stroke="#D7FF3F" opacity=".45"/>
      </g>
    </g>

    <g class="burst-one" opacity="0" aria-hidden="true">
      <g transform="translate(135 542)">
        <path d="M-30 0H30M0-30V30" stroke="#D7FF3F" stroke-width="2"/>
        <rect x="-21" y="-21" width="42" height="42" fill="none" stroke="#27D7F2"/>
      </g>
    </g>
    <g class="burst-two" opacity="0" aria-hidden="true">
      <g transform="translate(585 542)">
        <path d="M-30 0H30M0-30V30" stroke="#D7FF3F" stroke-width="2"/>
        <rect x="-21" y="-21" width="42" height="42" fill="none" stroke="#27D7F2"/>
      </g>
    </g>
    <g class="burst-three" opacity="0" aria-hidden="true">
      <g transform="translate(360 542)">
        <path d="M-30 0H30M0-30V30" stroke="#D7FF3F" stroke-width="2"/>
        <rect x="-21" y="-21" width="42" height="42" fill="none" stroke="#27D7F2"/>
      </g>
    </g>

    <g class="runner">
      <g transform="translate(360 542)">
        <g class="trail" transform-origin="0 26">
          <path d="M-12 21L0 66 12 21Z" fill="#27D7F2" opacity=".28"/>
          <path d="M-6 20L0 53 6 20Z" fill="#D7FF3F" opacity=".75"/>
        </g>
        <path d="M0-33L28 26 0 16-28 26Z" fill="#F4F2EA"/>
        <path d="M0-19L11 13 0 9-11 13Z" fill="#090A0B"/>
        <path d="M0-33V-45" stroke="#D7FF3F" stroke-width="3"/>
        <path d="M-28 26L0 16 28 26" fill="none" stroke="#27D7F2" stroke-width="2"/>
      </g>
    </g>

    <g class="mono" fill="#D7FF3F" font-size="11" font-weight="800" aria-hidden="true">
      <text class="burst-one" x="167" y="530" opacity="0">+100</text>
      <text class="burst-two" x="617" y="530" opacity="0">+100</text>
      <text class="burst-three" x="392" y="530" opacity="0">+100</text>
    </g>

    <rect class="scan" y="118" width="720" height="2" fill="#27D7F2" opacity="0" aria-hidden="true"/>
  </g>
  </g>

  <g transform="translate(0 640)">
    <rect width="720" height="84" fill="#121315"/>
    <path d="M0 0H720" stroke="#34373B"/>
    <text x="32" y="44" class="bridge-sans" fill="#F4F2EA" font-size="21" font-weight="600">好好吃饭，好好睡觉，好好生活</text>
    <g aria-hidden="true">
      <rect x="32" y="61" width="72" height="3" fill="#D7FF3F"/>
      <rect x="112" y="61" width="72" height="3" fill="#27D7F2"/>
      <rect x="192" y="61" width="72" height="3" fill="#FF4F5E"/>
      <path d="M304 62.5H688" stroke="#34373B"/>
      <rect x="430" y="59" width="7" height="7" fill="#D7FF3F"/>
      <rect x="558" y="59" width="7" height="7" fill="#27D7F2"/>
      <rect x="681" y="59" width="7" height="7" fill="#FF4F5E"/>
    </g>
  </g>

  <g transform="translate(0 724)">
<defs>
    <clipPath id="grid-clip">
      <rect x="24" y="126" width="672" height="120"/>
    </clipPath>
  </defs>

  <rect width="720" height="300" fill="#090A0B"/>
  <rect width="720" height="6" fill="#D7FF3F"/>
  <rect y="6" width="720" height="80" fill="#121315"/>
  <path d="M0 86H720" stroke="#34373B"/>
  <path d="M24 269H696" stroke="#25282C"/>

  <g class="mono">
    <text x="24" y="38" fill="#F4F2EA" font-size="14" font-weight="800">COMMIT</text>
    <text x="24" y="69" fill="#F4F2EA" font-size="29" font-weight="800">TRACE</text>
    <rect x="154" y="61" width="70" height="5" fill="#D7FF3F"/>
    <rect x="230" y="61" width="21" height="5" fill="#27D7F2"/>
    <text x="413" y="31" fill="#747A81" font-size="9" font-weight="700">TOTAL</text>
    <text x="413" y="60" fill="#F4F2EA" font-size="23" font-weight="800">96</text>
    <text x="552" y="31" fill="#747A81" font-size="9" font-weight="700">ACTIVE</text>
    <text x="552" y="60" fill="#27D7F2" font-size="23" font-weight="800">28</text>
    <rect class="live" x="646" y="28" width="7" height="7" fill="#D7FF3F"/>
    <text x="662" y="35" fill="#D7FF3F" font-size="9" font-weight="700">SYNC</text>
    <text x="36.68" y="109" class="mono month">AUG</text>
    <text x="100.08" y="109" class="mono month">SEP</text>
    <text x="150.79" y="109" class="mono month">OCT</text>
    <text x="201.51" y="109" class="mono month">NOV</text>
    <text x="264.91" y="109" class="mono month">DEC</text>
    <text x="315.62" y="109" class="mono month">JAN</text>
    <text x="379.02" y="109" class="mono month">FEB</text>
    <text x="429.74" y="109" class="mono month">MAR</text>
    <text x="480.45" y="109" class="mono month">APR</text>
    <text x="531.17" y="109" class="mono month">MAY</text>
    <text x="594.57" y="109" class="mono month">JUN</text>
    <text x="645.28" y="109" class="mono month">JUL</text>
    <g aria-hidden="true">
      <rect class="cell" x="24" y="162" width="9" height="12" fill="#191B1E"/>
      <rect class="cell" x="24" y="180" width="9" height="12" fill="#191B1E"/>
      <rect class="cell" x="24" y="198" width="9" height="12" fill="#191B1E"/>
      <rect class="cell" x="24" y="216" width="9" height="12" fill="#191B1E"/>
      <rect class="cell" x="24" y="234" width="9" height="12" fill="#191B1E"/>
      <rect class="cell" x="36.68" y="126" width="9" height="12" fill="#191B1E"/>
      <rect class="cell" x="36.68" y="144" width="9" height="12" fill="#191B1E"/>
      <rect class="cell" x="36.68" y="162" width="9" height="12" fill="#191B1E"/>
      <rect class="cell" x="36.68" y="180" width="9" height="12" fill="#191B1E"/>
      <rect class="cell" x="36.68" y="198" width="9" height="12" fill="#191B1E"/>
      <rect class="cell" x="36.68" y="216" width="9" height="12" fill="#191B1E"/>
      <rect class="cell" x="36.68" y="234" width="9" height="12" fill="#191B1E"/>
      <rect class="cell" x="49.36" y="126" width="9" height="12" fill="#191B1E"/>
      <rect class="cell" x="49.36" y="144" width="9" height="12" fill="#191B1E"/>
      <rect class="cell" x="49.36" y="162" width="9" height="12" fill="#191B1E"/>
      <rect class="cell" x="49.36" y="180" width="9" height="12" fill="#191B1E"/>
      <rect class="cell" x="49.36" y="198" width="9" height="12" fill="#191B1E"/>
      <rect class="cell" x="49.36" y="216" width="9" height="12" fill="#191B1E"/>
      <rect class="cell" x="49.36" y="234" width="9" height="12" fill="#191B1E"/>
      <rect class="cell" x="62.04" y="126" width="9" height="12" fill="#191B1E"/>
      <rect class="cell" x="62.04" y="144" width="9" height="12" fill="#191B1E"/>
      <rect class="cell" x="62.04" y="162" width="9" height="12" fill="#191B1E"/>
      <rect class="cell" x="62.04" y="180" width="9" height="12" fill="#191B1E"/>
      <rect class="cell" x="62.04" y="198" width="9" height="12" fill="#191B1E"/>
      <rect class="cell" x="62.04" y="216" width="9" height="12" fill="#191B1E"/>
      <rect class="cell" x="62.04" y="234" width="9" height="12" fill="#191B1E"/>
      <rect class="cell" x="74.72" y="126" width="9" height="12" fill="#191B1E"/>
      <rect class="cell" x="74.72" y="144" width="9" height="12" fill="#191B1E"/>
      <rect class="cell" x="74.72" y="162" width="9" height="12" fill="#191B1E"/>
      <rect class="cell" x="74.72" y="180" width="9" height="12" fill="#191B1E"/>
      <rect class="cell" x="74.72" y="198" width="9" height="12" fill="#191B1E"/>
      <rect class="cell" x="74.72" y="216" width="9" height="12" fill="#191B1E"/>
      <rect class="cell" x="74.72" y="234" width="9" height="12" fill="#191B1E"/>
      <rect class="cell" x="87.4" y="126" width="9" height="12" fill="#191B1E"/>
      <rect class="cell" x="87.4" y="144" width="9" height="12" fill="#191B1E"/>
      <rect class="cell" x="87.4" y="162" width="9" height="12" fill="#191B1E"/>
      <rect class="cell" x="87.4" y="180" width="9" height="12" fill="#191B1E"/>
      <rect class="cell" x="87.4" y="198" width="9" height="12" fill="#191B1E"/>
      <rect class="cell" x="87.4" y="216" width="9" height="12" fill="#191B1E"/>
      <rect class="cell" x="87.4" y="234" width="9" height="12" fill="#191B1E"/>
      <rect class="cell" x="100.08" y="126" width="9" height="12" fill="#191B1E"/>
      <rect class="cell" x="100.08" y="144" width="9" height="12" fill="#191B1E"/>
      <rect class="cell" x="100.08" y="162" width="9" height="12" fill="#191B1E"/>
      <rect class="cell" x="100.08" y="180" width="9" height="12" fill="#191B1E"/>
      <rect class="cell" x="100.08" y="198" width="9" height="12" fill="#191B1E"/>
      <rect class="cell" x="100.08" y="216" width="9" height="12" fill="#191B1E"/>
      <rect class="cell" x="100.08" y="234" width="9" height="12" fill="#191B1E"/>
      <rect class="cell" x="112.75" y="126" width="9" height="12" fill="#191B1E"/>
      <rect class="cell" x="112.75" y="144" width="9" height="12" fill="#191B1E"/>
      <rect class="cell" x="112.75" y="162" width="9" height="12" fill="#191B1E"/>
      <rect class="cell" x="112.75" y="180" width="9" height="12" fill="#191B1E"/>
      <rect class="cell" x="112.75" y="198" width="9" height="12" fill="#191B1E"/>
      <rect class="cell" x="112.75" y="216" width="9" height="12" fill="#191B1E"/>
      <rect class="cell" x="112.75" y="234" width="9" height="12" fill="#191B1E"/>
      <rect class="cell" x="125.43" y="126" width="9" height="12" fill="#191B1E"/>
      <rect class="cell" x="125.43" y="144" width="9" height="12" fill="#191B1E"/>
      <rect class="cell" x="125.43" y="162" width="9" height="12" fill="#191B1E"/>
      <rect class="cell" x="125.43" y="180" width="9" height="12" fill="#191B1E"/>
      <rect class="cell" x="125.43" y="198" width="9" height="12" fill="#191B1E"/>
      <rect class="cell" x="125.43" y="216" width="9" height="12" fill="#191B1E"/>
      <rect class="cell" x="125.43" y="234" width="9" height="12" fill="#191B1E"/>
      <rect class="cell" x="138.11" y="126" width="9" height="12" fill="#191B1E"/>
      <rect class="cell" x="138.11" y="144" width="9" height="12" fill="#191B1E"/>
      <rect class="cell" x="138.11" y="162" width="9" height="12" fill="#191B1E"/>
      <rect class="cell" x="138.11" y="180" width="9" height="12" fill="#191B1E"/>
      <rect class="cell" x="138.11" y="198" width="9" height="12" fill="#191B1E"/>
      <rect class="cell" x="138.11" y="216" width="9" height="12" fill="#191B1E"/>
      <rect class="cell" x="138.11" y="234" width="9" height="12" fill="#191B1E"/>
      <rect class="cell" x="150.79" y="126" width="9" height="12" fill="#191B1E"/>
      <rect class="cell" x="150.79" y="144" width="9" height="12" fill="#191B1E"/>
      <rect class="cell" x="150.79" y="162" width="9" height="12" fill="#191B1E"/>
      <rect class="cell" x="150.79" y="180" width="9" height="12" fill="#191B1E"/>
      <rect class="cell" x="150.79" y="198" width="9" height="12" fill="#191B1E"/>
      <rect class="cell" x="150.79" y="216" width="9" height="12" fill="#191B1E"/>
      <rect class="cell" x="150.79" y="234" width="9" height="12" fill="#191B1E"/>
      <rect class="cell" x="163.47" y="126" width="9" height="12" fill="#191B1E"/>
      <rect class="cell" x="163.47" y="144" width="9" height="12" fill="#191B1E"/>
      <rect class="cell" x="163.47" y="162" width="9" height="12" fill="#191B1E"/>
      <rect class="cell" x="163.47" y="180" width="9" height="12" fill="#191B1E"/>
      <rect class="cell" x="163.47" y="198" width="9" height="12" fill="#191B1E"/>
      <rect class="cell" x="163.47" y="216" width="9" height="12" fill="#191B1E"/>
      <rect class="cell" x="163.47" y="234" width="9" height="12" fill="#191B1E"/>
      <rect class="cell" x="176.15" y="126" width="9" height="12" fill="#191B1E"/>
      <rect class="cell" x="176.15" y="144" width="9" height="12" fill="#191B1E"/>
      <rect class="cell" x="176.15" y="162" width="9" height="12" fill="#191B1E"/>
      <rect class="cell" x="176.15" y="180" width="9" height="12" fill="#191B1E"/>
      <rect class="cell" x="176.15" y="198" width="9" height="12" fill="#191B1E"/>
      <rect class="cell" x="176.15" y="216" width="9" height="12" fill="#191B1E"/>
      <rect class="cell" x="176.15" y="234" width="9" height="12" fill="#191B1E"/>
      <rect class="cell" x="188.83" y="126" width="9" height="12" fill="#191B1E"/>
      <rect class="cell" x="188.83" y="144" width="9" height="12" fill="#191B1E"/>
      <rect class="cell" x="188.83" y="162" width="9" height="12" fill="#191B1E"/>
      <rect class="cell" x="188.83" y="180" width="9" height="12" fill="#191B1E"/>
      <rect class="cell" x="188.83" y="198" width="9" height="12" fill="#191B1E"/>
      <rect class="cell" x="188.83" y="216" width="9" height="12" fill="#191B1E"/>
      <rect class="cell" x="188.83" y="234" width="9" height="12" fill="#191B1E"/>
      <rect class="cell" x="201.51" y="126" width="9" height="12" fill="#191B1E"/>
      <rect class="cell" x="201.51" y="144" width="9" height="12" fill="#191B1E"/>
      <rect class="cell" x="201.51" y="162" width="9" height="12" fill="#191B1E"/>
      <rect class="cell" x="201.51" y="180" width="9" height="12" fill="#191B1E"/>
      <rect class="cell" x="201.51" y="198" width="9" height="12" fill="#191B1E"/>
      <rect class="cell" x="201.51" y="216" width="9" height="12" fill="#191B1E"/>
      <rect class="cell" x="201.51" y="234" width="9" height="12" fill="#191B1E"/>
      <rect class="cell" x="214.19" y="126" width="9" height="12" fill="#191B1E"/>
      <rect class="cell" x="214.19" y="144" width="9" height="12" fill="#191B1E"/>
      <rect class="cell" x="214.19" y="162" width="9" height="12" fill="#191B1E"/>
      <rect class="cell" x="214.19" y="180" width="9" height="12" fill="#191B1E"/>
      <rect class="cell" x="214.19" y="198" width="9" height="12" fill="#191B1E"/>
      <rect class="cell" x="214.19" y="216" width="9" height="12" fill="#191B1E"/>
      <rect class="cell" x="214.19" y="234" width="9" height="12" fill="#191B1E"/>
      <rect class="cell" x="226.87" y="126" width="9" height="12" fill="#191B1E"/>
      <rect class="cell" x="226.87" y="144" width="9" height="12" fill="#191B1E"/>
      <rect class="cell" x="226.87" y="162" width="9" height="12" fill="#191B1E"/>
      <rect class="cell" x="226.87" y="180" width="9" height="12" fill="#191B1E"/>
      <rect class="cell" x="226.87" y="198" width="9" height="12" fill="#191B1E"/>
      <rect class="cell" x="226.87" y="216" width="9" height="12" fill="#191B1E"/>
      <rect class="cell" x="226.87" y="234" width="9" height="12" fill="#191B1E"/>
      <rect class="cell" x="239.55" y="126" width="9" height="12" fill="#191B1E"/>
      <rect class="cell" x="239.55" y="144" width="9" height="12" fill="#191B1E"/>
      <rect class="cell" x="239.55" y="162" width="9" height="12" fill="#191B1E"/>
      <rect class="cell" x="239.55" y="180" width="9" height="12" fill="#191B1E"/>
      <rect class="cell" x="239.55" y="198" width="9" height="12" fill="#191B1E"/>
      <rect class="cell" x="239.55" y="216" width="9" height="12" fill="#191B1E"/>
      <rect class="cell" x="239.55" y="234" width="9" height="12" fill="#191B1E"/>
      <rect class="cell" x="252.23" y="126" width="9" height="12" fill="#191B1E"/>
      <rect class="cell" x="252.23" y="144" width="9" height="12" fill="#191B1E"/>
      <rect class="cell" x="252.23" y="162" width="9" height="12" fill="#191B1E"/>
      <rect class="cell" x="252.23" y="180" width="9" height="12" fill="#191B1E"/>
      <rect class="cell" x="252.23" y="198" width="9" height="12" fill="#191B1E"/>
      <rect class="cell" x="252.23" y="216" width="9" height="12" fill="#191B1E"/>
      <rect class="cell" x="252.23" y="234" width="9" height="12" fill="#191B1E"/>
      <rect class="cell" x="264.91" y="126" width="9" height="12" fill="#191B1E"/>
      <rect class="cell" x="264.91" y="144" width="9" height="12" fill="#191B1E"/>
      <rect class="cell" x="264.91" y="162" width="9" height="12" fill="#191B1E"/>
      <rect class="cell" x="264.91" y="180" width="9" height="12" fill="#191B1E"/>
      <rect class="cell" x="264.91" y="198" width="9" height="12" fill="#191B1E"/>
      <rect class="cell" x="264.91" y="216" width="9" height="12" fill="#191B1E"/>
      <rect class="cell" x="264.91" y="234" width="9" height="12" fill="#191B1E"/>
      <rect class="cell" x="277.58" y="126" width="9" height="12" fill="#191B1E"/>
      <rect class="cell" x="277.58" y="144" width="9" height="12" fill="#191B1E"/>
      <rect class="cell" x="277.58" y="162" width="9" height="12" fill="#191B1E"/>
      <rect class="cell" x="277.58" y="180" width="9" height="12" fill="#191B1E"/>
      <rect class="cell" x="277.58" y="198" width="9" height="12" fill="#191B1E"/>
      <rect class="cell" x="277.58" y="216" width="9" height="12" fill="#191B1E"/>
      <rect class="cell" x="277.58" y="234" width="9" height="12" fill="#191B1E"/>
      <rect class="cell" x="290.26" y="126" width="9" height="12" fill="#191B1E"/>
      <rect class="cell" x="290.26" y="144" width="9" height="12" fill="#191B1E"/>
      <rect class="cell" x="290.26" y="162" width="9" height="12" fill="#191B1E"/>
      <rect class="cell" x="290.26" y="180" width="9" height="12" fill="#191B1E"/>
      <rect class="cell" x="290.26" y="198" width="9" height="12" fill="#191B1E"/>
      <rect class="cell" x="290.26" y="216" width="9" height="12" fill="#191B1E"/>
      <rect class="cell" x="290.26" y="234" width="9" height="12" fill="#191B1E"/>
      <rect class="cell" x="302.94" y="126" width="9" height="12" fill="#191B1E"/>
      <rect class="cell" x="302.94" y="144" width="9" height="12" fill="#191B1E"/>
      <rect class="cell" x="302.94" y="162" width="9" height="12" fill="#191B1E"/>
      <rect class="cell" x="302.94" y="180" width="9" height="12" fill="#191B1E"/>
      <rect class="cell" x="302.94" y="198" width="9" height="12" fill="#191B1E"/>
      <rect class="cell" x="302.94" y="216" width="9" height="12" fill="#191B1E"/>
      <rect class="cell" x="302.94" y="234" width="9" height="12" fill="#191B1E"/>
      <rect class="cell" x="315.62" y="126" width="9" height="12" fill="#191B1E"/>
      <rect class="cell" x="315.62" y="144" width="9" height="12" fill="#191B1E"/>
      <rect class="cell" x="315.62" y="162" width="9" height="12" fill="#191B1E"/>
      <rect class="cell" x="315.62" y="180" width="9" height="12" fill="#191B1E"/>
      <rect class="cell" x="315.62" y="198" width="9" height="12" fill="#191B1E"/>
      <rect class="cell" x="315.62" y="216" width="9" height="12" fill="#191B1E"/>
      <rect class="cell" x="315.62" y="234" width="9" height="12" fill="#191B1E"/>
      <rect class="cell" x="328.3" y="126" width="9" height="12" fill="#191B1E"/>
      <rect class="cell" x="328.3" y="144" width="9" height="12" fill="#191B1E"/>
      <rect class="cell" x="328.3" y="162" width="9" height="12" fill="#191B1E"/>
      <rect class="cell" x="328.3" y="180" width="9" height="12" fill="#191B1E"/>
      <rect class="cell" x="328.3" y="198" width="9" height="12" fill="#191B1E"/>
      <rect class="cell" x="328.3" y="216" width="9" height="12" fill="#191B1E"/>
      <rect class="cell" x="328.3" y="234" width="9" height="12" fill="#191B1E"/>
      <rect class="cell" x="340.98" y="126" width="9" height="12" fill="#191B1E"/>
      <rect class="cell" x="340.98" y="144" width="9" height="12" fill="#191B1E"/>
      <rect class="cell" x="340.98" y="162" width="9" height="12" fill="#191B1E"/>
      <rect class="cell" x="340.98" y="180" width="9" height="12" fill="#191B1E"/>
      <rect class="cell" x="340.98" y="198" width="9" height="12" fill="#191B1E"/>
      <rect class="cell" x="340.98" y="216" width="9" height="12" fill="#191B1E"/>
      <rect class="cell" x="340.98" y="234" width="9" height="12" fill="#191B1E"/>
      <rect class="cell" x="353.66" y="126" width="9" height="12" fill="#191B1E"/>
      <rect class="cell" x="353.66" y="144" width="9" height="12" fill="#191B1E"/>
      <rect class="cell" x="353.66" y="162" width="9" height="12" fill="#191B1E"/>
      <rect class="cell" x="353.66" y="180" width="9" height="12" fill="#191B1E"/>
      <rect class="cell" x="353.66" y="198" width="9" height="12" fill="#191B1E"/>
      <rect class="cell" x="353.66" y="216" width="9" height="12" fill="#191B1E"/>
      <rect class="cell" x="353.66" y="234" width="9" height="12" fill="#191B1E"/>
      <rect class="cell" x="366.34" y="126" width="9" height="12" fill="#191B1E"/>
      <rect class="cell" x="366.34" y="144" width="9" height="12" fill="#191B1E"/>
      <rect class="cell" x="366.34" y="162" width="9" height="12" fill="#191B1E"/>
      <rect class="cell" x="366.34" y="180" width="9" height="12" fill="#191B1E"/>
      <rect class="cell" x="366.34" y="198" width="9" height="12" fill="#191B1E"/>
      <rect class="cell" x="366.34" y="216" width="9" height="12" fill="#191B1E"/>
      <rect class="cell" x="366.34" y="234" width="9" height="12" fill="#191B1E"/>
      <rect class="cell" x="379.02" y="126" width="9" height="12" fill="#191B1E"/>
      <rect class="cell" x="379.02" y="144" width="9" height="12" fill="#191B1E"/>
      <rect class="cell" x="379.02" y="162" width="9" height="12" fill="#191B1E"/>
      <rect class="cell" x="379.02" y="180" width="9" height="12" fill="#191B1E"/>
      <rect class="cell" x="379.02" y="198" width="9" height="12" fill="#191B1E"/>
      <rect class="cell" x="379.02" y="216" width="9" height="12" fill="#191B1E"/>
      <rect class="cell" x="379.02" y="234" width="9" height="12" fill="#191B1E"/>
      <rect class="cell" x="391.7" y="126" width="9" height="12" fill="#191B1E"/>
      <rect class="cell" x="391.7" y="144" width="9" height="12" fill="#191B1E"/>
      <rect class="cell" x="391.7" y="162" width="9" height="12" fill="#191B1E"/>
      <rect class="cell" x="391.7" y="180" width="9" height="12" fill="#191B1E"/>
      <rect class="cell" x="391.7" y="198" width="9" height="12" fill="#191B1E"/>
      <rect class="cell" x="391.7" y="216" width="9" height="12" fill="#191B1E"/>
      <rect class="cell" x="391.7" y="234" width="9" height="12" fill="#191B1E"/>
      <rect class="cell" x="404.38" y="126" width="9" height="12" fill="#191B1E"/>
      <rect class="cell" x="404.38" y="144" width="9" height="12" fill="#191B1E"/>
      <rect class="cell" x="404.38" y="162" width="9" height="12" fill="#2B452D"/>
      <rect class="cell" x="404.38" y="180" width="9" height="12" fill="#191B1E"/>
      <rect class="cell" x="404.38" y="198" width="9" height="12" fill="#191B1E"/>
      <rect class="cell" x="404.38" y="216" width="9" height="12" fill="#191B1E"/>
      <rect class="cell" x="404.38" y="234" width="9" height="12" fill="#191B1E"/>
      <rect class="cell" x="417.06" y="126" width="9" height="12" fill="#191B1E"/>
      <rect class="cell" x="417.06" y="144" width="9" height="12" fill="#191B1E"/>
      <rect class="cell" x="417.06" y="162" width="9" height="12" fill="#191B1E"/>
      <rect class="cell" x="417.06" y="180" width="9" height="12" fill="#191B1E"/>
      <rect class="cell" x="417.06" y="198" width="9" height="12" fill="#191B1E"/>
      <rect class="cell" x="417.06" y="216" width="9" height="12" fill="#191B1E"/>
      <rect class="cell" x="417.06" y="234" width="9" height="12" fill="#191B1E"/>
      <rect class="cell" x="429.74" y="126" width="9" height="12" fill="#191B1E"/>
      <rect class="cell" x="429.74" y="144" width="9" height="12" fill="#191B1E"/>
      <rect class="cell" x="429.74" y="162" width="9" height="12" fill="#191B1E"/>
      <rect class="cell" x="429.74" y="180" width="9" height="12" fill="#191B1E"/>
      <rect class="cell" x="429.74" y="198" width="9" height="12" fill="#191B1E"/>
      <rect class="cell" x="429.74" y="216" width="9" height="12" fill="#191B1E"/>
      <rect class="cell" x="429.74" y="234" width="9" height="12" fill="#191B1E"/>
      <rect class="cell" x="442.42" y="126" width="9" height="12" fill="#191B1E"/>
      <rect class="cell" x="442.42" y="144" width="9" height="12" fill="#191B1E"/>
      <rect class="cell" x="442.42" y="162" width="9" height="12" fill="#191B1E"/>
      <rect class="cell" x="442.42" y="180" width="9" height="12" fill="#191B1E"/>
      <rect class="cell" x="442.42" y="198" width="9" height="12" fill="#191B1E"/>
      <rect class="cell" x="442.42" y="216" width="9" height="12" fill="#191B1E"/>
      <rect class="cell" x="442.42" y="234" width="9" height="12" fill="#191B1E"/>
      <rect class="cell" x="455.09" y="126" width="9" height="12" fill="#191B1E"/>
      <rect class="cell" x="455.09" y="144" width="9" height="12" fill="#191B1E"/>
      <rect class="cell" x="455.09" y="162" width="9" height="12" fill="#191B1E"/>
      <rect class="cell" x="455.09" y="180" width="9" height="12" fill="#2B452D"/>
      <rect class="cell" x="455.09" y="198" width="9" height="12" fill="#191B1E"/>
      <rect class="cell" x="455.09" y="216" width="9" height="12" fill="#191B1E"/>
      <rect class="cell" x="455.09" y="234" width="9" height="12" fill="#191B1E"/>
      <rect class="cell" x="467.77" y="126" width="9" height="12" fill="#191B1E"/>
      <rect class="cell" x="467.77" y="144" width="9" height="12" fill="#191B1E"/>
      <rect class="cell" x="467.77" y="162" width="9" height="12" fill="#191B1E"/>
      <rect class="cell" x="467.77" y="180" width="9" height="12" fill="#191B1E"/>
      <rect class="cell" x="467.77" y="198" width="9" height="12" fill="#191B1E"/>
      <rect class="cell" x="467.77" y="216" width="9" height="12" fill="#191B1E"/>
      <rect class="cell" x="467.77" y="234" width="9" height="12" fill="#191B1E"/>
      <rect class="cell" x="480.45" y="126" width="9" height="12" fill="#191B1E"/>
      <rect class="cell" x="480.45" y="144" width="9" height="12" fill="#191B1E"/>
      <rect class="cell" x="480.45" y="162" width="9" height="12" fill="#191B1E"/>
      <rect class="cell" x="480.45" y="180" width="9" height="12" fill="#191B1E"/>
      <rect class="cell" x="480.45" y="198" width="9" height="12" fill="#191B1E"/>
      <rect class="cell" x="480.45" y="216" width="9" height="12" fill="#191B1E"/>
      <rect class="cell" x="480.45" y="234" width="9" height="12" fill="#2B452D"/>
      <rect class="cell" x="493.13" y="126" width="9" height="12" fill="#191B1E"/>
      <rect class="cell" x="493.13" y="144" width="9" height="12" fill="#191B1E"/>
      <rect class="cell" x="493.13" y="162" width="9" height="12" fill="#191B1E"/>
      <rect class="cell" x="493.13" y="180" width="9" height="12" fill="#191B1E"/>
      <rect class="cell" x="493.13" y="198" width="9" height="12" fill="#191B1E"/>
      <rect class="cell" x="493.13" y="216" width="9" height="12" fill="#191B1E"/>
      <rect class="cell" x="493.13" y="234" width="9" height="12" fill="#191B1E"/>
      <rect class="cell" x="505.81" y="126" width="9" height="12" fill="#191B1E"/>
      <rect class="cell" x="505.81" y="144" width="9" height="12" fill="#191B1E"/>
      <rect class="cell" x="505.81" y="162" width="9" height="12" fill="#191B1E"/>
      <rect class="cell" x="505.81" y="180" width="9" height="12" fill="#191B1E"/>
      <rect class="cell" x="505.81" y="198" width="9" height="12" fill="#191B1E"/>
      <rect class="cell" x="505.81" y="216" width="9" height="12" fill="#191B1E"/>
      <rect class="cell" x="505.81" y="234" width="9" height="12" fill="#191B1E"/>
      <rect class="cell" x="518.49" y="126" width="9" height="12" fill="#191B1E"/>
      <rect class="cell" x="518.49" y="144" width="9" height="12" fill="#191B1E"/>
      <rect class="cell" x="518.49" y="162" width="9" height="12" fill="#191B1E"/>
      <rect class="cell" x="518.49" y="180" width="9" height="12" fill="#191B1E"/>
      <rect class="cell" x="518.49" y="198" width="9" height="12" fill="#191B1E"/>
      <rect class="cell" x="518.49" y="216" width="9" height="12" fill="#54742B"/>
      <rect class="cell" x="518.49" y="234" width="9" height="12" fill="#191B1E"/>
      <rect class="cell" x="531.17" y="126" width="9" height="12" fill="#191B1E"/>
      <rect class="cell" x="531.17" y="144" width="9" height="12" fill="#2B452D"/>
      <rect class="cell" x="531.17" y="162" width="9" height="12" fill="#54742B"/>
      <rect class="cell" x="531.17" y="180" width="9" height="12" fill="#54742B"/>
      <rect class="cell" x="531.17" y="198" width="9" height="12" fill="#191B1E"/>
      <rect class="cell" x="531.17" y="216" width="9" height="12" fill="#54742B"/>
      <rect class="cell" x="531.17" y="234" width="9" height="12" fill="#91B52E"/>
      <rect class="cell" x="543.85" y="126" width="9" height="12" fill="#191B1E"/>
      <rect class="cell" x="543.85" y="144" width="9" height="12" fill="#191B1E"/>
      <rect class="cell" x="543.85" y="162" width="9" height="12" fill="#191B1E"/>
      <rect class="cell peak phase-0" x="543.85" y="180" width="9" height="12" fill="#D7FF3F"/>
      <rect class="cell" x="543.85" y="198" width="9" height="12" fill="#2B452D"/>
      <rect class="cell" x="543.85" y="216" width="9" height="12" fill="#2B452D"/>
      <rect class="cell" x="543.85" y="234" width="9" height="12" fill="#2B452D"/>
      <rect class="cell" x="556.53" y="126" width="9" height="12" fill="#191B1E"/>
      <rect class="cell" x="556.53" y="144" width="9" height="12" fill="#191B1E"/>
      <rect class="cell" x="556.53" y="162" width="9" height="12" fill="#191B1E"/>
      <rect class="cell" x="556.53" y="180" width="9" height="12" fill="#54742B"/>
      <rect class="cell" x="556.53" y="198" width="9" height="12" fill="#191B1E"/>
      <rect class="cell" x="556.53" y="216" width="9" height="12" fill="#2B452D"/>
      <rect class="cell" x="556.53" y="234" width="9" height="12" fill="#191B1E"/>
      <rect class="cell" x="569.21" y="126" width="9" height="12" fill="#191B1E"/>
      <rect class="cell" x="569.21" y="144" width="9" height="12" fill="#191B1E"/>
      <rect class="cell" x="569.21" y="162" width="9" height="12" fill="#191B1E"/>
      <rect class="cell" x="569.21" y="180" width="9" height="12" fill="#191B1E"/>
      <rect class="cell" x="569.21" y="198" width="9" height="12" fill="#2B452D"/>
      <rect class="cell" x="569.21" y="216" width="9" height="12" fill="#191B1E"/>
      <rect class="cell" x="569.21" y="234" width="9" height="12" fill="#191B1E"/>
      <rect class="cell" x="581.89" y="126" width="9" height="12" fill="#191B1E"/>
      <rect class="cell" x="581.89" y="144" width="9" height="12" fill="#54742B"/>
      <rect class="cell" x="581.89" y="162" width="9" height="12" fill="#2B452D"/>
      <rect class="cell" x="581.89" y="180" width="9" height="12" fill="#91B52E"/>
      <rect class="cell" x="581.89" y="198" width="9" height="12" fill="#2B452D"/>
      <rect class="cell" x="581.89" y="216" width="9" height="12" fill="#54742B"/>
      <rect class="cell" x="581.89" y="234" width="9" height="12" fill="#191B1E"/>
      <rect class="cell" x="594.57" y="126" width="9" height="12" fill="#191B1E"/>
      <rect class="cell" x="594.57" y="144" width="9" height="12" fill="#191B1E"/>
      <rect class="cell" x="594.57" y="162" width="9" height="12" fill="#191B1E"/>
      <rect class="cell" x="594.57" y="180" width="9" height="12" fill="#191B1E"/>
      <rect class="cell" x="594.57" y="198" width="9" height="12" fill="#2B452D"/>
      <rect class="cell" x="594.57" y="216" width="9" height="12" fill="#191B1E"/>
      <rect class="cell" x="594.57" y="234" width="9" height="12" fill="#191B1E"/>
      <rect class="cell" x="607.25" y="126" width="9" height="12" fill="#191B1E"/>
      <rect class="cell" x="607.25" y="144" width="9" height="12" fill="#191B1E"/>
      <rect class="cell" x="607.25" y="162" width="9" height="12" fill="#191B1E"/>
      <rect class="cell" x="607.25" y="180" width="9" height="12" fill="#191B1E"/>
      <rect class="cell" x="607.25" y="198" width="9" height="12" fill="#191B1E"/>
      <rect class="cell" x="607.25" y="216" width="9" height="12" fill="#191B1E"/>
      <rect class="cell" x="607.25" y="234" width="9" height="12" fill="#191B1E"/>
      <rect class="cell" x="619.92" y="126" width="9" height="12" fill="#191B1E"/>
      <rect class="cell" x="619.92" y="144" width="9" height="12" fill="#191B1E"/>
      <rect class="cell" x="619.92" y="162" width="9" height="12" fill="#191B1E"/>
      <rect class="cell" x="619.92" y="180" width="9" height="12" fill="#191B1E"/>
      <rect class="cell" x="619.92" y="198" width="9" height="12" fill="#191B1E"/>
      <rect class="cell" x="619.92" y="216" width="9" height="12" fill="#191B1E"/>
      <rect class="cell" x="619.92" y="234" width="9" height="12" fill="#191B1E"/>
      <rect class="cell" x="632.6" y="126" width="9" height="12" fill="#191B1E"/>
      <rect class="cell" x="632.6" y="144" width="9" height="12" fill="#191B1E"/>
      <rect class="cell" x="632.6" y="162" width="9" height="12" fill="#191B1E"/>
      <rect class="cell" x="632.6" y="180" width="9" height="12" fill="#191B1E"/>
      <rect class="cell" x="632.6" y="198" width="9" height="12" fill="#191B1E"/>
      <rect class="cell" x="632.6" y="216" width="9" height="12" fill="#191B1E"/>
      <rect class="cell" x="632.6" y="234" width="9" height="12" fill="#191B1E"/>
      <rect class="cell" x="645.28" y="126" width="9" height="12" fill="#191B1E"/>
      <rect class="cell" x="645.28" y="144" width="9" height="12" fill="#191B1E"/>
      <rect class="cell" x="645.28" y="162" width="9" height="12" fill="#191B1E"/>
      <rect class="cell" x="645.28" y="180" width="9" height="12" fill="#191B1E"/>
      <rect class="cell" x="645.28" y="198" width="9" height="12" fill="#191B1E"/>
      <rect class="cell" x="645.28" y="216" width="9" height="12" fill="#191B1E"/>
      <rect class="cell" x="645.28" y="234" width="9" height="12" fill="#191B1E"/>
      <rect class="cell" x="657.96" y="126" width="9" height="12" fill="#191B1E"/>
      <rect class="cell" x="657.96" y="144" width="9" height="12" fill="#191B1E"/>
      <rect class="cell" x="657.96" y="162" width="9" height="12" fill="#191B1E"/>
      <rect class="cell" x="657.96" y="180" width="9" height="12" fill="#191B1E"/>
      <rect class="cell" x="657.96" y="198" width="9" height="12" fill="#2B452D"/>
      <rect class="cell" x="657.96" y="216" width="9" height="12" fill="#191B1E"/>
      <rect class="cell" x="657.96" y="234" width="9" height="12" fill="#191B1E"/>
      <rect class="cell" x="670.64" y="126" width="9" height="12" fill="#191B1E"/>
      <rect class="cell" x="670.64" y="144" width="9" height="12" fill="#191B1E"/>
      <rect class="cell" x="670.64" y="162" width="9" height="12" fill="#2B452D"/>
      <rect class="cell" x="670.64" y="180" width="9" height="12" fill="#91B52E"/>
      <rect class="cell" x="670.64" y="198" width="9" height="12" fill="#2B452D"/>
      <rect class="cell" x="670.64" y="216" width="9" height="12" fill="#2B452D"/>
      <rect class="cell" x="670.64" y="234" width="9" height="12" fill="#191B1E"/>
      <rect class="cell" x="683.32" y="126" width="9" height="12" fill="#191B1E"/>
      <rect class="cell" x="683.32" y="144" width="9" height="12" fill="#2B452D"/>
      <rect class="cell" x="683.32" y="162" width="9" height="12" fill="#191B1E"/>
      <rect class="current" x="681.32" y="160" width="13" height="16" fill="none" stroke="#FF4F5E" stroke-width="2"/>
    </g>
    <text x="24" y="288" fill="#747A81" font-size="9" font-weight="700">365 DAYS</text>
    <text x="555" y="288" fill="#747A81" font-size="9" font-weight="700">2026-07-21</text>
    <g transform="translate(449 280)" aria-hidden="true">
      <rect width="8" height="8" fill="#191B1E"/>
      <rect x="13" width="8" height="8" fill="#2B452D"/>
      <rect x="26" width="8" height="8" fill="#54742B"/>
      <rect x="39" width="8" height="8" fill="#91B52E"/>
      <rect x="52" width="8" height="8" fill="#D7FF3F"/>
    </g>
  </g>

  <g clip-path="url(#grid-clip)" aria-hidden="true">
    <g class="trace-scan">
      <rect x="-20" y="126" width="44" height="120" fill="#27D7F2" opacity=".14"/>
      <path d="M13 126V246" stroke="#27D7F2" opacity=".35"/>
      <path d="M23 126V246" stroke="#27D7F2" stroke-width="2"/>
    </g>
  </g>
  </g>
</svg>
